<svg enable-background="new 0 0 52.2 44.3" viewBox="0 0 52.2 44.3" xmlns="http://www.w3.org/2000/svg"><path d="m36.6 5.4-4.1 10.9c-.2 0-.4 0-.6 0h-7.7l-4.5 11.7c-6.9-.3-12.4-6-12.4-13 0-3.6 1.5-6.9 3.8-9.2 2.4-2.4 5.6-3.8 9.2-3.8h13.8c1.9-.1 3.2 1.7 2.5 3.4z" fill="#473bf0"/><path d="m32.5 16.3-4.5 11.7h-7.7c-.2 0-.4 0-.6 0l4.4-11.7h7.7z" fill="#1414c1"/><path d="m44.9 29.4c0 3.6-1.5 6.9-3.8 9.2-2.4 2.4-5.6 3.8-9.2 3.8h-13.9c-1.8 0-3.1-1.8-2.5-3.5l4.2-10.9h.6 7.7l4.4-11.7c7 .3 12.5 6.1 12.5 13.1z" fill="#1db2cd"/></svg>