<svg enable-background="new 0 0 750 500" viewBox="0 0 750 500" xmlns="http://www.w3.org/2000/svg" xmlns:xlink="http://www.w3.org/1999/xlink"><linearGradient id="a" gradientUnits="userSpaceOnUse" x1="471.3074" x2="517.6323" y1="194.3612" y2="194.3612"><stop offset="0" stop-color="#dbe1fc"/><stop offset="1" stop-color="#e9edfb"/></linearGradient><linearGradient id="b"><stop offset="0" stop-color="#0f005c"/><stop offset="1" stop-color="#1e168c"/></linearGradient><linearGradient id="c" gradientTransform="matrix(-1 0 0 1 -1803.5028 0)" gradientUnits="userSpaceOnUse" x1="-2217.5664" x2="-2113.624" xlink:href="#b" y1="440.6653" y2="128.8369"/><linearGradient id="d"><stop offset="0" stop-color="#e5908c"/><stop offset="1" stop-color="#df6f63"/></linearGradient><linearGradient id="e" gradientUnits="userSpaceOnUse" x1="140.893" x2="604.3974" xlink:href="#d" y1="443.7533" y2="192.2177"/><linearGradient id="f" gradientTransform="matrix(-1 0 0 1 -1803.5028 0)" gradientUnits="userSpaceOnUse" x1="-1976.3716" x2="-2437.6692" xlink:href="#b" y1="422.1864" y2="534.3939"/><linearGradient id="g"><stop offset="0" stop-color="#5153fa"/><stop offset="1" stop-color="#4344dc"/></linearGradient><linearGradient id="h" gradientUnits="userSpaceOnUse" x1="506.7912" x2="616.0726" xlink:href="#g" y1="40.9451" y2="-76.8151"/><linearGradient id="i" gradientTransform="matrix(-1 0 0 1 -2876.2688 0)" gradientUnits="userSpaceOnUse" x1="-3385.8894" x2="-3355.6638" xlink:href="#g" y1="451.0484" y2="451.0484"/><linearGradient id="j" gradientTransform="matrix(-1 0 0 1 -2876.2688 0)" gradientUnits="userSpaceOnUse" x1="-3385.8911" x2="-3356.5173" xlink:href="#b" y1="445.1246" y2="445.1246"/><linearGradient id="k"><stop offset="0" stop-color="#ecb9b8"/><stop offset="1" stop-color="#e5908c"/></linearGradient><linearGradient id="l" gradientUnits="userSpaceOnUse" x1="510.8255" x2="566.411" xlink:href="#k" y1="429.9308" y2="387.849"/><linearGradient id="m" gradientTransform="matrix(-1 0 0 1 -2876.2688 0)" gradientUnits="userSpaceOnUse" x1="-3446.1462" x2="-3434.5632" xlink:href="#g" y1="450.3965" y2="450.3965"/><linearGradient id="n" gradientTransform="matrix(-1 0 0 1 -2876.2688 0)" gradientUnits="userSpaceOnUse" x1="-3446.062" x2="-3429.0605" xlink:href="#b" y1="441.4781" y2="441.4781"/><linearGradient id="o" gradientUnits="userSpaceOnUse" x1="560.3035" x2="610.2362" xlink:href="#k" y1="426.5033" y2="390.0744"/><linearGradient id="p" gradientUnits="userSpaceOnUse" x1="615.5499" x2="537.3575" xlink:href="#g" y1="191.3696" y2="341.1601"/><linearGradient id="q" gradientTransform="matrix(-1 0 0 1 -2876.2688 0)" gradientUnits="userSpaceOnUse" x1="-3402.9365" x2="-3398.061" y1="392.0757" y2="382.3246"><stop offset="0" stop-color="#89d6fc"/><stop offset="1" stop-color="#3d42f1"/></linearGradient><linearGradient id="r" gradientTransform="matrix(-1 0 0 1 -2876.2688 0)" gradientUnits="userSpaceOnUse" x1="-3423.0122" x2="-3459.2334" xlink:href="#k" y1="310.1378" y2="342.2124"/><linearGradient id="s" gradientTransform="matrix(-1 0 0 1 -2876.2688 0)" gradientUnits="userSpaceOnUse" x1="-3328.7129" x2="-3560.918" xlink:href="#g" y1="195.8549" y2="397.8143"/><linearGradient id="t" gradientTransform="matrix(-1 0 0 1 -2876.2688 0)" gradientUnits="userSpaceOnUse" x1="-3292.2104" x2="-3524.4158" xlink:href="#g" y1="237.8238" y2="439.7834"/><linearGradient id="u" gradientTransform="matrix(-1 0 0 1 -2876.2688 0)" gradientUnits="userSpaceOnUse" x1="-3322.7083" x2="-3294.1826" xlink:href="#k" y1="284.4777" y2="284.4777"/><linearGradient id="v" gradientTransform="matrix(-1 0 0 1 -2876.2688 0)" gradientUnits="userSpaceOnUse" x1="-3350.4358" x2="-3350.7473" xlink:href="#k" y1="208.247" y2="261.5164"/><linearGradient id="w" gradientTransform="matrix(-.9897 -.1428 -.1428 .9897 -2951.1599 -1708.7637)" gradientUnits="userSpaceOnUse" x1="-3645.8091" x2="-3672.0308" xlink:href="#k" y1="1402.0713" y2="1436.7604"/><linearGradient id="x" gradientTransform="matrix(-.9897 -.1428 -.1428 .9897 -2951.1599 -1708.7637)" gradientUnits="userSpaceOnUse" x1="-3665.835" x2="-3634.5129" xlink:href="#b" y1="1410.4392" y2="1410.4392"/><linearGradient id="y" gradientTransform="matrix(-.9897 -.1428 -.1428 .9897 -2951.1599 -1708.7637)" gradientUnits="userSpaceOnUse" x1="-3684.2134" x2="-3663.1816" xlink:href="#k" y1="1429.5424" y2="1407.9642"/><linearGradient id="z" gradientTransform="matrix(-1 0 0 1 -2876.2688 0)" gradientUnits="userSpaceOnUse" x1="-3297.2131" x2="-3286.998" xlink:href="#k" y1="281.1275" y2="281.1275"/><linearGradient id="A" gradientTransform="matrix(-1 0 0 1 -2876.2688 0)" gradientUnits="userSpaceOnUse" x1="-3183.3745" x2="-3614.2312" xlink:href="#b" y1="201.8466" y2="516.1491"/><linearGradient id="B" gradientTransform="matrix(-1 0 0 1 -2876.2688 0)" gradientUnits="userSpaceOnUse" x1="-3168.2695" x2="-3111.5176" xlink:href="#b" y1="271.7942" y2="222.4636"/><linearGradient id="C" gradientTransform="matrix(-1 0 0 1 -2876.2688 0)" gradientUnits="userSpaceOnUse" x1="-3118.6509" x2="-3328.7783" xlink:href="#d" y1="199.3911" y2="415.3391"/><linearGradient id="D" gradientTransform="matrix(-1 0 0 1 -2876.2688 0)" gradientUnits="userSpaceOnUse" x1="-3246.7908" x2="-3436.4246" xlink:href="#g" y1="205.6949" y2="400.5818"/><linearGradient id="E" gradientTransform="matrix(-1 0 0 1 -2876.2688 0)" gradientUnits="userSpaceOnUse" x1="-3241.8879" x2="-3431.5222" xlink:href="#g" y1="222.8212" y2="417.7086"/><linearGradient id="F" gradientTransform="matrix(-1 0 0 1 -2876.2688 0)" gradientUnits="userSpaceOnUse" x1="-3376.3052" x2="-3412.5261" xlink:href="#k" y1="297.5967" y2="329.6712"/><path d="m587.7 55.5c.6-2.2 3.8-2.3 4.6-.1 7.8 22.3 22.2 84.3-26 154.5-60.4 88.2-58.7 132.7-45.1 166.4 0 0-28.4-27.3-31.4-73.1-7.3-112.5 86.5-208 97.9-247.7z" fill="#99b0f6"/><path d="m584 91c-3.5 11.5-7.3 22.9-11.5 34.1-4.1 11.3-8.6 22.4-13.4 33.4s-9.9 21.8-15.4 32.5c-5.4 10.7-11.3 21.1-17.3 31.5-5.9 10.5-11.9 21-16.8 32.1s-8.6 23-10 35.2c-.3 3-.6 6.1-.8 9.2s-.2 6.1-.2 9.2c.1 6.1.6 12.2 1.5 18.3 1.9 12.1 5.6 23.9 10.8 35 .5 1.2 1.9 1.7 3.1 1.1 1.1-.5 1.6-1.9 1.1-3-1.2-2.7-2.3-5.4-3.3-8.2-.5-1.4-1-2.8-1.5-4.2-.4-1.4-.9-2.8-1.3-4.2-1.7-5.6-3-11.4-3.8-17.2-1.8-11.6-1.8-23.6-.5-35.2.7-5.8 1.9-11.6 3.5-17.3s3.6-11.2 6-16.6c4.7-10.9 10.6-21.3 16.4-31.8s11.6-21.1 16.9-31.9c2.7-5.4 5.3-10.9 7.7-16.4 1.3-2.7 2.5-5.5 3.7-8.3s2.3-5.6 3.5-8.3c4.5-11.2 8.7-22.5 12.6-33.9 3.8-11.4 7.3-23 10.3-34.6.1-.3-.1-.7-.4-.8-.4-.2-.8-.1-.9.3z" fill="#c0cef8"/><path d="m478.6 294.4c-3 3.1-8.1 2.1-9.9-1.8-9.5-21.6-30.9-85.2 6.4-157.8 31.5-61.3 42.7-97.5 46.7-114.3.8-3.6 5.7-4 7.2-.6 15.8 37 57.3 162.8-50.4 274.5z" fill="#c0cef8"/><path d="m473.3 292.1c-.1 0-.2 0-.3 0-.9 0-1.7-.8-1.6-1.7 0-1 3.2-105.7 43.1-192.8.4-.8 1.4-1.2 2.2-.8s1.2 1.4.8 2.2c-39.6 86.6-42.8 190.5-42.8 191.5-.1.8-.7 1.5-1.4 1.6z" fill="url(#a)"/><path d="m145.7 452c0 4.5 3.7 8.1 8.1 8.1h440.1c4.5 0 8.1-3.7 8.1-8.1l3.7-252.9c0-4.5-5.3-13.2-14.9-12.5l-430.1-11.1c-5.6-.1-11 2-15 6s-6.2 9.4-6 15z" fill="url(#c)"/><path d="m153.7 444.2c0 4.2 3.5 7.7 7.7 7.7h421.9c4.2 0 7.7-3.5 7.7-7.7l3.5-229.6c-.4-13.8-12.5-18.8-19.9-18.5l-412.2-11.1c-3.9-.1-7.8 1.4-10.6 4.2s-4.3 6.6-4.2 10.5z" fill="url(#e)"/><g fill="#fff" opacity=".6"><path d="m586.4 335.1c-.6 0-1.1-.5-1.1-1.1l.3-18.6c0-.6.5-1.1 1.1-1.1.6 0 1.1.5 1.1 1.1l-.3 18.6c.1.6-.4 1.1-1.1 1.1z"/><path d="m587.1 289.5c-.6 0-1.1-.5-1.1-1.1l1-71.3c0-4.2-1.3-7.6-3.8-10-4.7-4.5-12.2-4.3-12.5-4.3l-131.7-3.6c-.6 0-1.1-.5-1.1-1.2 0-.6.5-1.2 1.2-1.1l131.7 3.5c.8 0 8.8-.2 14 4.9 3 2.9 4.5 6.8 4.5 11.7l-1 71.3c-.1.7-.6 1.2-1.2 1.2z"/></g><path d="m115.6 481.1h507.6c3.1 0 5.7-2.5 5.7-5.7v-10.9c0-3.1-2.5-5.7-5.7-5.7h-507.6c-3.1 0-5.7 2.5-5.7 5.7v10.9c.1 3.2 2.6 5.7 5.7 5.7z" fill="url(#f)"/><path d="m434.7 65.8-261.1-1.6c-8.6-.1-15.4 7.1-15 15.7l18 371h290.6l16.1-331.5z" fill="#99b0f6"/><path d="m445.6 117.9c-8.5-.3-15-7.6-14.4-16.1l2.8-35.4 49.3 52.9z" fill="url(#h)"/><g fill="#fff"><path d="m296.4 136.7c23.4 0 113.4-.3 136.2-.4 2.9 0 5.1 2.7 5 6-.1 3.2-2.4 5.7-5.1 5.7l-136.1 1.2c-2.6 0-4.8-2.3-5-5.3l-.1-.8c-.3-3.4 2.1-6.4 5.1-6.4z" opacity=".78"/><path d="m295.3 162.7c23.4 0 113.4-.3 136.2-.4 2.9 0 5.1 2.7 5 6-.1 3.2-2.4 5.7-5.1 5.7l-136.1 1.2c-2.6 0-4.8-2.3-5-5.3l-.1-.8c-.3-3.4 2.1-6.4 5.1-6.4z" opacity=".78"/><path d="m214 199.8h210.3c4.4 0 8 2.7 7.9 6.1-.1 3.2-3.5 5.7-7.7 5.7l-210.2.8c-4 0-7.5-2.3-7.9-5.3l-.1-.8c-.5-3.5 3.1-6.5 7.7-6.5z" opacity=".78"/><path d="m212.3 227.1c28.2-.1 136.4-.7 163.7-.9 3.4 0 6.2 2.7 6.1 6-.1 3.2-2.7 5.7-6 5.7l-163.6 1.7c-3.2 0-5.8-2.3-6.1-5.3l-.1-.8c-.4-3.4 2.4-6.4 6-6.4z" opacity=".78"/><path d="m213.6 262.8h210.3c4.4 0 8 2.7 7.9 6.1-.1 3.2-3.5 5.7-7.7 5.7l-210.1.7c-4 0-7.5-2.3-7.9-5.3l-.1-.8c-.5-3.4 3-6.4 7.6-6.4z" opacity=".78"/><path d="m210.5 290.6c28.3.1 137 .1 164.5.1 3.5 0 6.2 2.7 6.1 6.1-.1 3.2-2.8 5.7-6.1 5.7l-164.4.6c-3.2 0-5.8-2.3-6.1-5.3l-.1-.8c-.4-3.4 2.5-6.4 6.1-6.4z" opacity=".78"/><path d="m211.9 327.2h210.3c4.4 0 8 2.7 7.9 6.1-.1 3.2-3.5 5.7-7.7 5.7l-210.2.8c-4 0-7.5-2.3-7.9-5.3l-.1-.8c-.5-3.5 3-6.5 7.7-6.5z" opacity=".78"/><path d="m209.7 354.6c28.3.1 137 .1 164.5.1 3.5 0 6.2 2.7 6.1 6.1-.1 3.2-2.8 5.7-6.1 5.7l-164.4.6c-3.2 0-5.8-2.3-6.1-5.3l-.1-.8c-.4-3.4 2.4-6.4 6.1-6.4z" opacity=".78"/><path d="m214 390.8h210.3c4.4 0 8 2.7 7.9 6.1-.1 3.2-3.5 5.7-7.7 5.7l-210.2.8c-4 0-7.5-2.3-7.9-5.3l-.1-.8c-.5-3.5 3.1-6.5 7.7-6.5z" opacity=".78"/><path d="m211.9 421.2c28 0 135.3-.1 162.4-.2 3.4 0 6.2 2.7 6.1 6-.1 3.2-2.7 5.7-6 5.7l-162.3.9c-3.1 0-5.8-2.3-6.1-5.3l-.1-.8c-.3-3.3 2.5-6.3 6-6.3z" opacity=".78"/><path d="m240 120.1-14.7 54.2-4-.1-26-66.5c-1.2-3.1-2.4-5-3.6-5.6s-4.6-1-10.1-1.2v-1l40.4 1.5v1c-4.8-.2-8.1 0-9.9.4s-2.8 1.3-2.8 2.8c0 .8.2 1.7.7 2.7l18.4 47.7 10.6-38.7-2.5-8.1c-.9-3-2.1-4.9-3.4-5.5s-4.7-1.1-10.2-1.3v-1l39.7 1.4v1c-4.7-.2-7.9 0-9.7.4s-2.7 1.4-2.7 3c0 .8.2 1.6.5 2.5l14.8 47.2 12.6-34.2c1.3-3.6 1.9-6.5 1.9-8.8 0-6.3-4.5-9.6-13.7-9.9v-1l29.3 1.1v1c-5.3-.2-9.3 2.4-11.9 7.6-.4.8-1.8 4.4-4.2 10.7l-18.7 51.5-3.8-.1z" opacity=".78"/></g><path d="m480.2 449.6c5.2.4 14.2 1.2 21.2 1.5 4.3.2 6.7-.2 8.1-.8v.4c0 .7-.6 1.3-1.4 1.4-13.4.7-24 .3-27.8 0-.8 0-1.3-.9-.8-1.6.2-.3.5-.6.7-.9z" fill="url(#i)"/><path d="m501.5 451.1c-7.1-.3-16.1-1-21.2-1.5 5.1-6.2 21.2-10.5 21.2-10.5h4.6c3.1 4.5 3.6 8.8 3.6 11.1-1.5.6-3.9 1.1-8.2.9z" fill="url(#j)"/><path d="m506.8 431.7-.4 8.5c0 .9-.7 1.7-1.6 1.8s-2.1.1-3.4-.3c-.8-.3-1.4-.9-1.5-1.8l-1.5-8.2z" fill="url(#l)"/><path d="m566.1 451c2.2-.3 3.3-1.5 3.7-2.7.3 1.3-.4 2.7-2 3.3-1.9.8-3.9.9-5.4.9-1.7-.1-3.2-.8-4.1-1.9 1.7.8 4.1.9 7.8.4z" fill="url(#m)"/><path d="m555.5 431.6h3.8c5.7-.1 9.3 12 10.5 16.7-.4 1.2-1.4 2.4-3.7 2.7-3.7.5-6.1.4-7.8-.4-3.1-4.1-4.6-10-5.4-13.5-.8-4 2.6-5.5 2.6-5.5z" fill="url(#n)"/><path d="m558.8 423.8 2.1 8.3c.3 1-.2 2.1-1.2 2.6-1.2.6-2.8 1.2-4.3 1-.7-.1-1.3-.6-1.5-1.3l-3.1-8.7z" fill="url(#o)"/><path d="m561.3 426.2c-2.6 2.3-11.1 2.6-11.1 2.6-30.5-73.1-42.9-83.5-42.9-83.5 4.4 27.6.7 88.7.7 88.7-5 2.2-11.5 0-11.5 0-.4-45.2-7.4-84.6-15.6-115.6 20.6-.5 31.5-7.5 35.1-10.3 17.2 27.6 45.3 118.1 45.3 118.1z" fill="url(#p)"/><path d="m510.8 223.9c3.9 19.4 2.5 54.2 1.6 70.1-.3 4.5 2.9 10.6 5.4 14.9.4.7.2 1.5-.5 1.9-4.2 2.2-18.5 8.9-35 9.7-1.1.1-2.1-.7-2.4-1.8-12.3-45.8-26.5-75.1-26.5-75.1 15.7-25.1 57.4-19.7 57.4-19.7z" fill="#6060f7"/><path d="m505.2 343.6c.2 0 .3 0 .5-.1.5-.3.6-.9.3-1.3-.2-.3-4.1-6.6-12.1-10.5-.5-.2-1.1 0-1.3.5s0 1.1.5 1.3c7.4 3.6 11.2 9.7 11.3 9.7.2.2.5.4.8.4z" fill="url(#q)"/><path d="m535.3 279.7c-1.3 9.1-5 18.9-12.3 29.4l-2.8-2.3s3.2-13.2 1.4-28.1c4.5-.9 9.9 0 13.7 1z" fill="url(#r)"/><path d="m506.5 247.9 4.4-24s29.1 22.2 24.4 55.8c-3.8-1-9.2-1.9-13.8-1-1.3-10.7-5.3-22.4-15-30.8z" fill="url(#s)"/><path d="m453.3 243.6 11.2 24.2c-1.8 14.6-9.7 20.9-18.1 23.3-.5-6.7-2.2-12-3.8-15.7 10.9-11.2 10.7-31.8 10.7-31.8z" fill="url(#t)"/><path d="m442.7 275.4c1.6 3.7 3.2 9.1 3.8 15.7-22.6 8.8-28.5-8.2-28.5-8.2l4.2-.7c9.3.9 15.9-2.1 20.5-6.8z" fill="url(#u)"/><path d="m463.7 213.7 5.4 19.9c.6 2.2 3 3.4 5.2 2.6 2.3-.9 5.3-2.2 7.8-3.6 2.7-1.5 3.6-4.9 1.8-7.5l-11.3-16.8z" fill="url(#v)"/><path d="m451.8 198.6c0 .3 4.5 22.7 4.5 22.7l12.7-2.9-1.2-21.9c.1.1-15.2-3.6-16 2.1z" fill="url(#w)"/><path d="m465 201.5 1.5 11.5v.4c-.1.9-.8 4-3.9 3.1-2.8-.8-5.4-1.5-7.1-.9-.8.2-1.3 1.1-1.1 1.9.4 2 1.4 6.6 2.9 10.4.3.8 1.2 1.2 2 1 2.4-.7 7.5-2.3 11.2-4.6.5-.3.8-.9.8-1.5-.1-2.9-.5-11.7-.2-14.2.3-2.3 3.1-3.7 4.3-4.2.4-.2.7-.5.9-.9.6-1.4 1.4-4.7-2.8-6.1-.9-.3-1.3-1.2-1-2.1.6-1.7.9-4.4-2.4-5.8-3.3-1.5-5.7.3-7.1 1.7-.5.6-1.4.7-2.1.2-.4-.2-.9-.3-1.5 0-.8.5-1.8.2-2.3-.7-.8-1.6-2.4-3.3-5.6-2.8-5.7 1-6.4 7.3-4.8 11 1.5 3.7 7.6 2.3 10.7.4 2.3-1.4 5.4.1 6.7.9.6.4.9.8.9 1.3z" fill="url(#x)"/><path d="m471.6 212.7s-2.3-6.6.1-8.2 6-.8 5.2 4c-1 6-5.3 4.2-5.3 4.2z" fill="url(#y)"/><path d="m419.6 286c-1.1.9-5-1-7.4-2.2-1.2-.6-1.7-2-1.3-3.2.6-1.8 1.5-4.1 2.7-4.4 1.9-.6 10.7 6.1 6 9.8z" fill="url(#z)"/><path d="m611.1 340.8-297-105.6-15.7 43.7 296.9 108.6c6.3 2.3 13.3-.3 16.7-6.1 3.5-6 6.8-15.3 7-29.2.1-5.1-3.1-9.7-7.9-11.4z" fill="url(#A)"/><path d="m222.2 223.9 41 5c0 5.6-1.9 13-8.2 21.3l-34.3-22.6c-1.7-1.1-.7-4 1.5-3.7z" fill="url(#B)"/><path d="m314.1 235.2c1.9 27.4-15.7 43.7-15.7 43.7l-43.3-28.6c6.3-8.4 8.1-15.7 8.2-21.3z" fill="url(#C)"/><path d="m607.4 354.2c.4 0 .7-.2.8-.6.2-.5-.1-1-.5-1.1l-284.2-100.4c-.5-.2-1 .1-1.1.5-.2.5.1 1 .5 1.1l284.2 100.4c.1.1.2.1.3.1z" fill="url(#D)"/><path d="m602.5 371.4c.4 0 .7-.2.8-.6.2-.5-.1-1-.5-1.1l-284.2-100.5c-.5-.2-1 .1-1.1.5-.2.5.1 1 .5 1.1l284.2 100.4c.1.1.2.2.3.2z" fill="url(#E)"/><path d="m521.3 306.4-13.1-1.1-5.7 5.2s1.3 1.9 5.6.8c4.2-1.1 10-1.3 10-1.3s5.8 2.6 5.9-2.3z" fill="url(#F)"/></svg>