<svg enable-background="new 0 0 750 500" viewBox="0 0 750 500" xmlns="http://www.w3.org/2000/svg"><ellipse cx="675.9" cy="338.4" fill="#e0e0e0" rx="1.9" ry=".3"/><ellipse cx="668.2" cy="338.4" fill="#e0e0e0" rx="1.9" ry=".3"/><ellipse cx="660.5" cy="338.4" fill="#e0e0e0" rx="1.9" ry=".3"/><ellipse cx="652.8" cy="338.4" fill="#e0e0e0" rx="1.9" ry=".3"/><ellipse cx="645.1" cy="338.4" fill="#e0e0e0" rx="1.9" ry=".3"/><ellipse cx="637.4" cy="338.4" fill="#e0e0e0" rx="1.9" ry=".3"/><ellipse cx="629.7" cy="338.4" fill="#e0e0e0" rx="1.9" ry=".3"/><ellipse cx="622" cy="338.4" fill="#e0e0e0" rx="1.9" ry=".3"/><ellipse cx="614.3" cy="338.4" fill="#e0e0e0" rx="1.9" ry=".3"/><ellipse cx="606.6" cy="338.4" fill="#e0e0e0" rx="1.9" ry=".3"/><ellipse cx="598.9" cy="338.4" fill="#e0e0e0" rx="1.9" ry=".3"/><ellipse cx="591.1" cy="338.4" fill="#e0e0e0" rx="1.9" ry=".3"/><path d="m583.7 336.2c.2 0 .3.9.3 1.9v.3l-.3-.3c.9 0 1.6.2 1.6.3 0 .2-.7.3-1.6.3h-.3v-.3c0-.1 0-.2 0-.3 0-1.1.1-1.9.3-1.9z" fill="#e0e0e0"/><ellipse cx="583.7" cy="330.4" fill="#e0e0e0" rx=".3" ry="1.9"/><ellipse cx="583.7" cy="322.7" fill="#e0e0e0" rx=".3" ry="1.9"/><ellipse cx="583.7" cy="315" fill="#e0e0e0" rx=".3" ry="1.9"/><ellipse cx="583.7" cy="307.3" fill="#e0e0e0" rx=".3" ry="1.9"/><ellipse cx="583.7" cy="299.6" fill="#e0e0e0" rx=".3" ry="1.9"/><ellipse cx="583.7" cy="291.9" fill="#e0e0e0" rx=".3" ry="1.9"/><ellipse cx="583.7" cy="284.1" fill="#e0e0e0" rx=".3" ry="1.9"/><ellipse cx="583.7" cy="276.4" fill="#e0e0e0" rx=".3" ry="1.9"/><ellipse cx="583.7" cy="268.7" fill="#e0e0e0" rx=".3" ry="1.9"/><ellipse cx="583.7" cy="261" fill="#e0e0e0" rx=".3" ry="1.9"/><ellipse cx="583.7" cy="253.3" fill="#e0e0e0" rx=".3" ry="1.9"/><path d="m584.3 244.3c0 .1-.2.2-.6.2l.2-.2c.1.3.1.8.1 1.3 0 1.1-.1 1.9-.3 1.9s-.3-.9-.3-1.9c0-.5 0-1 .1-1.3v-.3h.2c.4.1.6.2.6.3z" fill="#e0e0e0"/><ellipse cx="590.1" cy="244.3" fill="#e0e0e0" rx="1.9" ry=".3"/><ellipse cx="597.8" cy="244.3" fill="#e0e0e0" rx="1.9" ry=".3"/><ellipse cx="605.5" cy="244.3" fill="#e0e0e0" rx="1.9" ry=".3"/><ellipse cx="613.2" cy="244.3" fill="#e0e0e0" rx="1.9" ry=".3"/><ellipse cx="620.9" cy="244.3" fill="#e0e0e0" rx="1.9" ry=".3"/><ellipse cx="628.6" cy="244.3" fill="#e0e0e0" rx="1.9" ry=".3"/><ellipse cx="636.3" cy="244.3" fill="#e0e0e0" rx="1.9" ry=".3"/><ellipse cx="644" cy="244.3" fill="#e0e0e0" rx="1.9" ry=".3"/><ellipse cx="651.7" cy="244.3" fill="#e0e0e0" rx="1.9" ry=".3"/><ellipse cx="659.5" cy="244.3" fill="#e0e0e0" rx="1.9" ry=".3"/><ellipse cx="667.2" cy="244.3" fill="#e0e0e0" rx="1.9" ry=".3"/><ellipse cx="674.9" cy="244.3" fill="#e0e0e0" rx="1.9" ry=".3"/><ellipse cx="677.9" cy="249" fill="#e0e0e0" rx=".3" ry="1.9"/><ellipse cx="677.9" cy="256.7" fill="#e0e0e0" rx=".3" ry="1.9"/><ellipse cx="677.9" cy="264.4" fill="#e0e0e0" rx=".3" ry="1.9"/><ellipse cx="677.9" cy="272.1" fill="#e0e0e0" rx=".3" ry="1.9"/><ellipse cx="677.9" cy="279.8" fill="#e0e0e0" rx=".3" ry="1.9"/><ellipse cx="677.9" cy="287.5" fill="#e0e0e0" rx=".3" ry="1.9"/><ellipse cx="677.9" cy="295.2" fill="#e0e0e0" rx=".3" ry="1.9"/><ellipse cx="677.9" cy="302.9" fill="#e0e0e0" rx=".3" ry="1.9"/><ellipse cx="677.9" cy="310.6" fill="#e0e0e0" rx=".3" ry="1.9"/><ellipse cx="677.9" cy="318.3" fill="#e0e0e0" rx=".3" ry="1.9"/><ellipse cx="677.9" cy="326.1" fill="#e0e0e0" rx=".3" ry="1.9"/><ellipse cx="677.9" cy="333.8" fill="#e0e0e0" rx=".3" ry="1.9"/><path d="m674.4 333.9h7v7h-7z" fill="#e0e0e0"/><path d="m580.2 334.9h7v7h-7z" fill="#e0e0e0"/><path d="m674.4 240.1h7v7h-7z" fill="#e0e0e0"/><path d="m580.2 240.8h7v7h-7z" fill="#e0e0e0"/><path d="m284.9 73.7h135.1v90.5h-135.1z" fill="#fff"/><path d="m420.1 164.2s0-.6 0-1.6c0-1.1 0-2.7 0-4.8 0-4.2 0-10.3 0-18.2 0-15.7-.1-38.3-.1-65.9l.2.2c-37.2 0-84.2 0-135.1 0l.2-.2v90.5l-.2-.2c39.8 0 73.5.1 97.4.1 11.9 0 21.4 0 27.8.1h7.4 1.9.5s-.2 0-.6 0-1.1 0-1.9 0c-1.7 0-4.1 0-7.4 0-6.5 0-15.9 0-27.8.1-23.9 0-57.7.1-97.5.1h-.2v-.2c0-27.6 0-58.2 0-90.5v-.2h.2 135.1.2v.2c0 27.6-.1 50.2-.1 66v18.2 4.7z" fill="#e0e0e0"/><path d="m284.9 81.7c0-.1 30.2-.2 67.5-.2s67.5.1 67.5.2-30.2.2-67.5.2c-37.3.1-67.5 0-67.5-.2z" fill="#e0e0e0"/><circle cx="289.2" cy="77.7" fill="#e0e0e0" opacity=".3" r="1.1"/><circle cx="292.9" cy="77.7" fill="#e0e0e0" opacity=".3" r="1.1"/><circle cx="296.5" cy="77.7" fill="#e0e0e0" opacity=".3" r="1.1"/><path d="m296.5 91.2h36v36h-36z" fill="#e0e0e0"/><ellipse cx="370.1" cy="101.4" fill="#e0e0e0" rx="31.4" ry=".2"/><ellipse cx="370.1" cy="108.1" fill="#e0e0e0" rx="31.4" ry=".2"/><ellipse cx="370.1" cy="114.8" fill="#e0e0e0" rx="31.4" ry=".2"/><path d="m375.8 121.5s-.5.1-1.5.1-2.4 0-4 .1c-3.4 0-8 .1-13.1.1s-9.8 0-13.1-.1c-1.6 0-3-.1-4-.1-.9 0-1.5-.1-1.5-.1s.5-.1 1.5-.1 2.4 0 4-.1c3.4 0 8-.1 13.1-.1s9.8 0 13.1.1c1.6 0 3 .1 4 .1s1.5 0 1.5.1z" fill="#e0e0e0"/><path d="m298.8 139.4h16.9v16.9h-16.9z" fill="#e0e0e0"/><path d="m329.5 139.4h16.9v16.9h-16.9z" fill="#e0e0e0"/><path d="m360.2 139.4h16.9v16.9h-16.9z" fill="#e0e0e0"/><path d="m391 139.4h16.9v16.9h-16.9z" fill="#e0e0e0"/><path d="m75.2 77.1h102.7v148.9h-102z" fill="#e0e0e0"/><path d="m67.5 77.8h101.7v147.5h-101.7z" fill="#fff" transform="matrix(-1 0 0 -1 236.6835 303.0964)"/><path d="m169.9 77.1v148.9h-103.1v-148.9zm-1.4 147.5v-146.1h-100.3v146.1z" fill="#e0e0e0"/><path d="m80.1 93.8h76.5v115.5h-76.5z" fill="#fff"/><path d="m80.1 93.8v.6 1.6 6.3c0 5.5.1 13.6.1 23.8 0 20.4.1 49.2.2 83.2l-.3-.3h76.5l-.4.4c0-43.6.1-83.8.1-115.5l.3.3c-23.3-.1-42.3-.1-55.6-.2-6.6 0-11.8-.1-15.4-.1-1.8 0-3.1 0-4 0-1-.1-1.5-.1-1.5-.1s.4 0 1.3 0h4c3.5 0 8.7 0 15.3-.1 13.3 0 32.5-.1 55.8-.2h.3v.3c0 31.8 0 72 .1 115.5v.4h-.4c-27.2 0-53.1 0-76.5 0h-.3v-.3c.1-34 .1-63 .2-83.4 0-10.2.1-18.2.1-23.7 0-2.7 0-4.8 0-6.3 0-.7 0-1.2 0-1.6.1-.4.1-.6.1-.6z" fill="#e0e0e0"/><path d="m67.2 225.3c-.1-.1.6-1 1.6-2.5 1.1-1.5 2.6-3.6 4.4-5.8s3.5-4.2 4.7-5.5c1.3-1.4 2.1-2.2 2.2-2.1.2.1-2.8 3.7-6.3 8.1s-6.5 7.9-6.6 7.8z" fill="#e0e0e0"/><ellipse cx="73.8" cy="85.8" fill="#e0e0e0" rx=".4" ry="10.2" transform="matrix(.7841 -.6206 .6206 .7841 -37.3149 64.3114)"/><path d="m169.2 77.9c-4.4 5.5-8.9 11-13.3 16.4" fill="#fff"/><g fill="#e0e0e0"><ellipse cx="162.6" cy="86.1" rx="10.6" ry=".4" transform="matrix(.6297 -.7769 .7769 .6297 -6.7195 158.1982)"/><ellipse cx="163" cy="217.4" rx=".4" ry="10.1" transform="matrix(.7843 -.6203 .6203 .7843 -99.7044 147.9709)"/><path d="m123.3 153.2h-13.5l-1.6 3.7c-.5 1.2-.8 2.3-.8 3.1 0 1.1.4 1.9 1.3 2.4.5.3 1.8.5 3.7.7v1h-12.6v-1c1.4-.2 2.5-.8 3.4-1.7s2-2.8 3.3-5.7l13.6-30.4h.5l13.7 31.2c1.3 3 2.4 4.8 3.2 5.6.6.6 1.5.9 2.7 1v1h-18.4v-1h.8c1.5 0 2.5-.2 3.1-.6.4-.3.6-.7.6-1.3 0-.3-.1-.7-.2-1 0-.2-.3-.9-.8-2.1zm-1-2-5.7-13.1-5.8 13.1z"/><path d="m461 104.9c0-.1.5-.1 1.2-.1h.4l-.1.1c0-.5.1-.8.1-.8.1 0 .1.3.1.8v.1h-.1c-.1 0-.3 0-.4 0-.6 0-1.2-.1-1.2-.1z"/><ellipse cx="458.7" cy="104.9" rx=".8" ry=".1"/><ellipse cx="455.5" cy="104.9" rx=".8" ry=".1"/><ellipse cx="452.4" cy="104.9" rx=".8" ry=".1"/><ellipse cx="449.2" cy="104.9" rx=".8" ry=".1"/><ellipse cx="446.1" cy="104.9" rx=".8" ry=".1"/><ellipse cx="442.9" cy="104.9" rx=".8" ry=".1"/><ellipse cx="439.8" cy="104.9" rx=".8" ry=".1"/><ellipse cx="436.6" cy="104.9" rx=".8" ry=".1"/><ellipse cx="433.5" cy="104.9" rx=".8" ry=".1"/><ellipse cx="430.3" cy="104.9" rx=".8" ry=".1"/><ellipse cx="427.1" cy="104.9" rx=".8" ry=".1"/><ellipse cx="424" cy="104.9" rx=".8" ry=".1"/><ellipse cx="420.8" cy="104.9" rx=".8" ry=".1"/><ellipse cx="417.7" cy="104.9" rx=".8" ry=".1"/><ellipse cx="414.5" cy="104.9" rx=".8" ry=".1"/><ellipse cx="411.4" cy="104.9" rx=".8" ry=".1"/><ellipse cx="408.2" cy="104.9" rx=".8" ry=".1"/><ellipse cx="406.5" cy="103.5" rx=".1" ry=".8"/><ellipse cx="406.5" cy="100.3" rx=".1" ry=".8"/><ellipse cx="406.5" cy="97.2" rx=".1" ry=".8"/><ellipse cx="406.5" cy="94" rx=".1" ry=".8"/><ellipse cx="406.5" cy="90.9" rx=".1" ry=".8"/><ellipse cx="406.5" cy="87.7" rx=".1" ry=".8"/><ellipse cx="406.5" cy="84.6" rx=".1" ry=".8"/><ellipse cx="406.5" cy="81.4" rx=".1" ry=".8"/><ellipse cx="406.5" cy="78.3" rx=".1" ry=".8"/><ellipse cx="406.5" cy="75.1" rx=".1" ry=".8"/><ellipse cx="406.5" cy="72" rx=".1" ry=".8"/><ellipse cx="406.5" cy="68.8" rx=".1" ry=".8"/><ellipse cx="406.5" cy="65.7" rx=".1" ry=".8"/><ellipse cx="406.5" cy="62.5" rx=".1" ry=".8"/><ellipse cx="406.5" cy="59.4" rx=".1" ry=".8"/><ellipse cx="406.5" cy="56.2" rx=".1" ry=".8"/><ellipse cx="406.5" cy="53.1" rx=".1" ry=".8"/><ellipse cx="406.5" cy="49.9" rx=".1" ry=".8"/><ellipse cx="408.4" cy="48.7" rx=".8" ry=".1"/><ellipse cx="411.6" cy="48.7" rx=".8" ry=".1"/><ellipse cx="414.7" cy="48.7" rx=".8" ry=".1"/><ellipse cx="417.9" cy="48.7" rx=".8" ry=".1"/><ellipse cx="421" cy="48.7" rx=".8" ry=".1"/><ellipse cx="424.2" cy="48.7" rx=".8" ry=".1"/><ellipse cx="427.3" cy="48.7" rx=".8" ry=".1"/><ellipse cx="430.5" cy="48.7" rx=".8" ry=".1"/><ellipse cx="433.7" cy="48.7" rx=".8" ry=".1"/><ellipse cx="436.8" cy="48.7" rx=".8" ry=".1"/><ellipse cx="440" cy="48.7" rx=".8" ry=".1"/><ellipse cx="443.1" cy="48.7" rx=".8" ry=".1"/><ellipse cx="446.3" cy="48.7" rx=".8" ry=".1"/><ellipse cx="449.4" cy="48.7" rx=".8" ry=".1"/><ellipse cx="452.6" cy="48.7" rx=".8" ry=".1"/><ellipse cx="455.7" cy="48.7" rx=".8" ry=".1"/><ellipse cx="458.9" cy="48.7" rx=".8" ry=".1"/><path d="m462.6 48.9s-.1-.1-.1-.2l.1.1c-.1 0-.4 0-.6 0-.4 0-.8-.1-.8-.1 0-.1.4-.1.8-.1h.6.1v.1c0 .1-.1.2-.1.2z"/><ellipse cx="462.6" cy="51.3" rx=".1" ry=".8"/><ellipse cx="462.6" cy="54.4" rx=".1" ry=".8"/><ellipse cx="462.6" cy="57.6" rx=".1" ry=".8"/><ellipse cx="462.6" cy="60.7" rx=".1" ry=".8"/><ellipse cx="462.6" cy="63.9" rx=".1" ry=".8"/><ellipse cx="462.6" cy="67" rx=".1" ry=".8"/><ellipse cx="462.6" cy="70.2" rx=".1" ry=".8"/><ellipse cx="462.6" cy="73.4" rx=".1" ry=".8"/><ellipse cx="462.6" cy="76.5" rx=".1" ry=".8"/><ellipse cx="462.6" cy="79.7" rx=".1" ry=".8"/><ellipse cx="462.6" cy="82.8" rx=".1" ry=".8"/><ellipse cx="462.6" cy="86" rx=".1" ry=".8"/><ellipse cx="462.6" cy="89.1" rx=".1" ry=".8"/><ellipse cx="462.6" cy="92.3" rx=".1" ry=".8"/><ellipse cx="462.6" cy="95.4" rx=".1" ry=".8"/><ellipse cx="462.6" cy="98.6" rx=".1" ry=".8"/><ellipse cx="462.6" cy="101.7" rx=".1" ry=".8"/><path d="m460.5 102.2h4.2v4.2h-4.2z"/><path d="m404.4 102.8h4.2v4.2h-4.2z"/><path d="m460.5 46.2h4.2v4.2h-4.2z"/><path d="m404.4 46.6h4.2v4.2h-4.2z"/></g><path d="m662.1 103.9h-3.4l-7.3-10.2v-6.7s-5.2-.3-4.6 8.5 0 6.6 0 6.6-11 0-12 1c-.7.7-1 11.7-1.1 17.6-.1 3 1.8 5.8 4.6 6.5.4.1.8.2 1.2.2 2.8 0 16.8-2.2 16.8-2.2h5.8z" fill="#ebebeb"/><path d="m671.8 102.1-2.1 23h-5.8v-22.6z" fill="#ebebeb"/><path d="m681.3 468.8c0 .1-137.1.3-306.2.3-169.2 0-306.3-.1-306.3-.3s137.1-.3 306.3-.3c169 0 306.2.1 306.2.3z" fill="#263238"/><path d="m553.3 351.6c1-.2 9.2 37.2 8.1 51.7s-8.1 65.1-8.1 65.1h-33.6l-6.1-71.5 1.1 71.5h-45.2s-10.5-49.1-8.6-64 11.8-54 11.8-54z" fill="#263238"/><path d="m517 360.2s.1.5.1 1.4v3.8c-.1 3.2-.3 7.7-.7 12.5-.4 4.9-1 9.3-1.4 12.5-.2 1.6-.4 2.9-.6 3.8s-.3 1.4-.3 1.4 0-.5.1-1.4c.1-1 .3-2.3.4-3.8.4-3.2.9-7.6 1.3-12.5s.7-9.3.8-12.5c.1-1.5.1-2.8.2-3.8 0-.9.1-1.4.1-1.4z" fill="#455a64"/><path d="m523.1 363.2s.3-.1.7 0c.5.1 1.2.4 1.7 1.1.3.3.5.8.7 1.3.1.5.1 1.1-.1 1.7-.4 1.1-1.6 2.1-3 2.1s-2.6-1.1-2.9-2.2c-.2-.6-.2-1.2-.1-1.7.2-.5.4-.9.7-1.3.6-.6 1.4-.9 1.9-.9s.7.1.7.2c0 0-.3 0-.7.1s-1.1.3-1.6.9-.9 1.6-.5 2.5c.3.9 1.3 1.9 2.5 1.9s2.2-.8 2.6-1.8.1-1.9-.4-2.6c-.5-.6-1.1-1-1.5-1.1-.5-.1-.7-.1-.7-.2z" fill="#455a64"/><path d="m558.3 369.5s-.3.2-.9.3c-.6.2-1.4.4-2.5.5-2.2.2-5.3 0-8.3-1.5-3-1.4-5.2-3.7-6.4-5.5-.6-.9-1-1.7-1.2-2.3s-.3-.9-.3-.9c.1 0 .6 1.2 1.8 2.9s3.4 3.9 6.3 5.2c2.9 1.4 5.9 1.7 8.1 1.6 2.1 0 3.4-.4 3.4-.3z" fill="#455a64"/><path d="m481.4 190.3c-2.5 9.3-6.4 16.7-10.2 20.5-3.8 3.7-7.8 8.1-7.7 13.4.1 2.1.7 4.3-.2 6.2-1.2 2.4-4.3 3-6.7 4.3-3.5 2-5.4 6.1-5.3 10.1s2.2 7.8 5 10.6c2.9 2.9 7.6 5 11.2 3 2.2-1.2 3.4-3.6 4.6-5.8 5.7-11.7 10.9-23.6 15.6-35.7" fill="#263238"/><path d="m504.9 150.6c6.5-7.2 17.5-9.8 26.5-6.3s15.3 12.9 15.2 22.5c-.1 6.2-2.5 12.7 0 18.4 1.7 4 5.8 7.1 6.3 11.5.6 5.1-3.7 9.6-3.5 14.7.1 3.3 2.2 6.3 4.6 8.6s5.2 4.2 7.4 6.7c6.1 6.9 6.5 17.9 1.9 25.9s-13.5 13-22.7 14.1-18.6-1.4-26.7-5.9c-5.3-2.9-10.3-6.7-13.4-11.8-3.2-5.1-4.2-11.8-1.7-17.3" fill="#263238"/><path d="m524.4 228s20.7 6.1 22.8 9.4c2 3.3 8.5 41.8 8.5 41.8l-12.7 45.4s10.5 17 11.1 25.5c-23.5 15.2-50.1 10.9-77.9-1.2l-2-44.4-2.6-70.9 17.1-6z" fill="#e0e0e0"/><path d="m547.5 333.8s-.3 0-.8 0-1.3-.1-2.2-.1c-1.9-.2-4.7-.4-8-.6-6.8-.6-16.1-1.4-26.4-2.3-10.3-1-19.6-1.8-26.4-2.5-3.3-.3-6-.6-8-.8-.9-.1-1.6-.2-2.2-.2-.5-.1-.8-.1-.8-.1h.8c.5 0 1.3.1 2.2.1 1.9.2 4.7.4 8 .6 6.8.6 16.1 1.4 26.4 2.3 10.3 1 19.6 1.8 26.4 2.5 3.3.3 6 .6 8 .8.9.1 1.6.2 2.2.2.5 0 .8.1.8.1z" fill="#6060fc"/><ellipse cx="502.8" cy="283.8" fill="#6060fc" rx="20.4" ry=".3"/><path d="m550.5 253.3s-.6.1-1.6.2c-1.1.1-2.6.1-4.4.3-3.7.2-8.9.5-14.5.9-5.7.4-10.8.9-14.5 1.3-1.8.2-3.3.3-4.4.4-1 .1-1.6.1-1.6.1s.6-.1 1.6-.3 2.5-.4 4.4-.6c3.7-.5 8.8-1 14.5-1.4s10.8-.7 14.6-.8c1.9-.1 3.4-.1 4.4-.1z" fill="#6060fc"/><path d="m547.2 237.4 20.8 56.5 14-27.8 18.3 3.7-10.5 43.9c-1.1 7.8-7 14-14.7 15.6-6.4 1.3-13.1-.8-17.5-5.7l-6.5-7.2z" fill="#e0e0e0"/><path d="m567.6 329.6s-.1-.5-.2-1.4-.1-2.2-.2-3.9c-.1-3.3-.2-7.8 0-12.8.1-5 .5-9.5.8-12.8.2-1.6.3-2.9.4-3.9.1-.9.2-1.4.2-1.4v1.4c-.1 1-.1 2.3-.2 3.9-.2 3.3-.5 7.8-.6 12.8s-.2 9.5-.1 12.8v3.9c-.1.9-.1 1.4-.1 1.4z" fill="#6060fc"/><ellipse cx="583.1" cy="290.8" fill="#6060fc" rx=".3" ry="12.1" transform="matrix(.3551 -.9348 .9348 .3551 104.1836 732.6738)"/><path d="m604.6 263.4-8.8 6.4-9.7-2.4 2.4-2.5z" fill="#ffbe9d"/><path d="m636.3 184.8-70.9 30.7.3 20.5-8 8.4 27.1 24.2 7.9-8.8 21.1-3z" fill="#fafafa"/><path d="m636.3 184.8c-.6 2-9.2 29.7-22.3 72.1v.1h-.1c-6.7.9-13.8 1.9-21.1 3l.2-.1c-2.5 2.8-5.2 5.8-7.9 8.9l-.2.2-.2-.2c-4.4-4-9.1-8.1-13.8-12.4-4.5-4-8.9-8-13.3-11.9l-.2-.2.2-.2c2.7-2.8 5.4-5.6 8-8.4l-.1.2c-.1-7.1-.2-14-.3-20.5v-.2l.1-.1c41.6-17.7 69-29.5 71-30.3-2 .9-29.3 12.8-70.8 30.9l.1-.2c.1 6.6.2 13.4.4 20.5v.1l-.1.1c-2.6 2.8-5.3 5.6-8 8.4v-.4c4.3 3.9 8.8 7.8 13.3 11.8 4.7 4.2 9.4 8.4 13.8 12.4h-.4c2.7-3 5.4-6 7.9-8.8l.1-.1h.1c7.3-1 14.4-2 21.1-2.9l-.2.2c13.3-42.4 22-70 22.7-72z" fill="#263238"/><ellipse cx="599.2" cy="227.7" fill="#263238" rx="11.1" ry="11.1" transform="matrix(.6664 -.7456 .7456 .6664 30.1414 522.7264)"/><ellipse cx="617.8" cy="206.2" fill="#263238" rx="28.3" ry=".3" transform="matrix(.6536 -.7568 .7568 .6536 57.9113 538.9857)"/><path d="m417.9 429.7c-7.3-6.5-7.9-17.6-1.5-24.9l133.3-150.8 26.4 23.6-133.1 150.6c-6.5 7.4-17.7 8-25.1 1.5z" fill="#6060fc"/><path d="m560.7 239.7h14.5v41.7h-14.5z" fill="#6060fc" transform="matrix(.6664 -.7456 .7456 .6664 -4.7806 510.3974)"/><path d="m631.8 181.3h7.7v7.7h-7.7z" fill="#6060fc" transform="matrix(.7664 .6423 -.6423 .7664 267.3816 -365.0202)"/><path d="m684.5 224.8c-.3.3-22.9-18.2-50.5-41.4s-49.8-42.2-49.6-42.5c.3-.3 22.9 18.2 50.5 41.4 27.7 23.1 49.9 42.2 49.6 42.5z" fill="#6060fc"/><ellipse cx="683.9" cy="224.2" fill="#6060fc" rx="2.3" ry="2.3" transform="matrix(.6423 -.7664 .7664 .6423 72.7582 604.397)"/><ellipse cx="584.5" cy="140.9" fill="#6060fc" rx="2.3" ry="2.3" transform="matrix(.6423 -.7664 .7664 .6423 101.0669 498.3399)"/><path d="m549.7 253.9 26.5 23.7-3.6 4-24.1-26.2z" opacity=".3"/><path d="m565.8 248.9v18.9l3.8 3.9v-19.4z" fill="#fff" opacity=".5"/><path d="m597.5 240 9.7 3.9 2.1 7.8-4.7 11.6-17.1 2.5 5-5.1-.6-4.5s-4.8-1.5-4.9-2.2.6-3.2 1.3-3.3 5.7 1.7 5.7 1.7-5.9-4.7-5.8-5.5c.2-.8.8-2.7 2-2.9s10.8 4.3 10.8 4.3l1.6 3.5 1.4-5.7c-.1.2-8.6-2.2-6.5-6.1z" fill="#ffbe9d"/><path d="m596.3 258.4c.1 0 .2-.3.3-1 .1-.6 0-1.5-.3-2.4s-.9-1.6-1.4-2-.8-.6-.9-.5 1.2 1 1.8 2.7c.7 1.6.3 3.1.5 3.2z" fill="#eb996e"/><path d="m600.9 256.7c.1 0-.3-.9-.4-2.5-.1-.8-.1-1.8-.5-2.8-.2-.5-.5-1.1-.9-1.5-.4-.5-1-.8-1.6-1-2.3-.8-4.4-1.5-5.9-2s-2.5-.8-2.5-.7.9.5 2.4 1c1.5.6 3.6 1.3 5.9 2.1.6.2 1.1.5 1.4.9.4.4.6.8.8 1.3.4 1 .4 1.9.6 2.7.1 1.6.6 2.5.7 2.5z" fill="#eb996e"/><ellipse cx="602.8" cy="253.1" fill="#eb996e" rx=".3" ry="1.9" transform="matrix(.9866 -.1629 .1629 .9866 -33.1659 101.5572)"/><path d="m530.3 324.2s15.6-5.3 15.9-5.5c.4-.2 11-5.1 10.1-8 0 0 3-2.4 2.1-3.7l-4.3 1.8s6-3.9 5-7.4c0 0 .6-1.2 0-1.9s-3.8 1.5-6.1 2.9l-4.5 1.8c-2 .8-4.1.9-6.1.3-1-.3-1.6-1.3-1.3-2.3.5-2.2 1.1-5.6-.3-10.5 0 0-1.1.4-1.9 2.8-1 3.1-4.1 5.4-5.2 7.5-.6 1.2-1.7 3-2.4 4.4-.6 1.1-1.7 2-2.9 2.3l1.1 8.1z" fill="#ffbe9d"/><path d="m547.2 309.5s.2 0 .5-.2c.3-.1.8-.3 1.4-.6 1.2-.5 2.8-1.3 4.4-2.4 1.7-1.1 3.1-2.2 4-3.1.5-.4.9-.8 1.1-1.1.3-.3.4-.4.4-.4s-.2.1-.4.4c-.3.2-.7.6-1.2 1-1 .8-2.4 1.9-4 3s-3.2 1.9-4.4 2.5c-.6.3-1.1.5-1.4.7-.2.1-.4.2-.4.2z" fill="#eb996e"/><path d="m547.5 312.6s.5-.1 1.1-.4c.7-.3 1.6-.7 2.6-1.3s1.8-1.2 2.4-1.6c.6-.5.9-.8.9-.8 0-.1-1.5 1-3.4 2.2-1 .6-1.9 1.1-2.5 1.4-.7.3-1.1.5-1.1.5z" fill="#eb996e"/><path d="m547.3 316.4s.6-.2 1.5-.6 2.1-1 3.3-1.8 2.3-1.6 3.1-2.2c.7-.6 1.2-1 1.2-1.1 0 0-.5.3-1.3.9s-1.8 1.4-3.1 2.1c-1.2.8-2.4 1.4-3.3 1.9-.8.5-1.4.7-1.4.8z" fill="#eb996e"/><path d="m530.3 324.2-57.7 17.4c-13.3-6-21.4-19.9-20.1-34.4 1.8-20.4 4.2-47.2 4.9-54 1.2-11.2 14.1-19.5 14.1-19.5 17.7 1.2 13.8 36.2 13.8 36.2l-7.1 40.3 50.2-2z" fill="#e0e0e0"/><path d="m478.2 310.1s0-.6.1-1.6.2-2.5.4-4.4c.5-3.7 1.2-8.7 2.3-14.3 1-5.6 2.1-10.6 2.9-14.2.4-1.8.7-3.3 1-4.3s.4-1.6.4-1.5c0 0-.1.6-.2 1.6-.2 1.1-.5 2.6-.8 4.3-.7 3.6-1.7 8.6-2.7 14.2s-1.9 10.6-2.4 14.3c-.2 1.8-.5 3.2-.6 4.3-.3 1-.4 1.6-.4 1.6z" fill="#263238"/><path d="m528.3 308.1s-.2 0-.5.1c-.4 0-.9.1-1.6.1-1.4.1-3.3.2-5.8.4-4.9.3-11.6.5-19.1.7-7.4.2-14.1.4-19.1.5-2.4.1-4.3.1-5.8.2-.6 0-1.2 0-1.6 0s-.5 0-.6 0c0 0 .2 0 .5-.1.4 0 .9-.1 1.6-.1 1.4-.1 3.3-.2 5.8-.3 4.9-.3 11.6-.5 19.1-.7 7.4-.2 14.1-.4 19.1-.5 2.4-.1 4.3-.1 5.8-.2h1.6c.5-.1.6-.1.6-.1z" fill="#263238"/><path d="m480.3 294.8s-.4 0-1.1 0c-.8-.1-1.8-.1-2.9-.2-2.4-.2-5.8-.4-9.5-.6s-7.1-.2-9.5-.2c-1.1 0-2.1 0-2.9 0-.7 0-1.1 0-1.1-.1 0 0 .4-.1 1.1-.1.7-.1 1.7-.1 2.9-.1 2.4-.1 5.8-.1 9.5.1s7.1.4 9.5.7c1.2.1 2.2.3 2.9.4.8 0 1.2.1 1.1.1z" fill="#6060fc"/><ellipse cx="470.7" cy="266.4" fill="#6060fc" rx=".3" ry="14.6" transform="matrix(.04187017 -.9991 .9991 .04187017 184.7827 725.557)"/><path d="m457.9 328.3s.2-.3.6-.9 1-1.4 1.7-2.4c1.5-2 3.8-4.5 6.6-7.1s5.6-4.6 7.7-5.9c1-.7 1.9-1.2 2.5-1.5s1-.5 1-.5c0 .1-1.3.9-3.3 2.3s-4.7 3.5-7.5 6-5.1 5.1-6.7 6.9c-1.6 1.9-2.5 3.1-2.6 3.1z" fill="#6060fc"/><ellipse cx="497.4" cy="321.6" fill="#6060fc" rx=".3" ry="12.3" transform="matrix(.9878 -.1558 .1558 .9878 -44.0254 81.4047)"/><path d="m472.3 341.6 64.6-19.6c-4.8 6.4-14.3 12.3-21.4 16s-14.7 6.3-22.3 8.8c-4.1 1.4-8.3 2.8-12.7 2.8s-8.6-1.3-10.9-5z" opacity=".3"/><path d="m483.4 175.4c1.2-2.8.1-6.4-2.4-8.1s-6.2-1.5-8.6.4-3.3 5.4-2.5 8.3c1.1 3.5 4.7 6 8.4 5.8 3.7-.3 6.9-3.3 7.5-6.9" fill="#263238"/><path d="m493.1 158.5v4.7l-1 70.7c-.1 8.2 6.8 14.8 15.6 14.9 8.9.1 16.3-6.6 16.5-14.9.3-8.7.7-17.9.7-17.9s11.3-1.6 14-16.1c1.4-7.2 1.3-19.2 1-28.9-.3-8.8-7.9-15.6-16.6-14.9z" fill="#ffbe9d"/><path d="m534.9 179.6c0 1-.8 1.8-1.9 1.8-1 0-1.9-.8-1.9-1.7 0-1 .8-1.8 1.9-1.8 1.1-.1 1.9.7 1.9 1.7z" fill="#263238"/><path d="m537.1 177.2c-.2.2-1.6-.9-3.7-.9-2-.1-3.5.9-3.7.7-.1-.1.1-.5.8-1 .6-.5 1.7-.9 3-.8 1.3 0 2.3.5 2.9 1 .6.4.8.9.7 1z" fill="#263238"/><path d="m515.2 179.4c0 1-.8 1.8-1.9 1.8-1 0-1.9-.8-1.9-1.7 0-1 .8-1.8 1.9-1.8 1-.1 1.9.7 1.9 1.7z" fill="#263238"/><path d="m517.3 177c-.2.2-1.6-.9-3.7-.9-2-.1-3.5.9-3.7.7-.1-.1.1-.5.8-1 .6-.5 1.7-.9 3-.8 1.3 0 2.3.5 2.9 1s.8.9.7 1z" fill="#263238"/><path d="m524.2 192.2c0-.1 1.3-.3 3.3-.5.5 0 1-.1 1.1-.5s-.1-.9-.3-1.5c-.5-1.3-.9-2.6-1.4-4-2-5.6-3.4-10.3-3.1-10.4.2-.1 2 4.4 4 10.1.5 1.4.9 2.7 1.4 4 .2.6.5 1.3.2 2-.1.4-.5.7-.9.7-.3.1-.6.1-.9.1-2.1.1-3.4.1-3.4 0z" fill="#263238"/><path d="m524.9 216.1s-9.9.4-19.4-5.8c0 0 4.5 10.2 19.2 9.2z" fill="#eb996e"/><path d="m523.2 197c-.7-1-2-1.5-3.2-1.4-.9.1-1.8.5-2.3 1.2-.6.7-.7 1.7-.2 2.4.5.8 1.7 1 2.6.7 1-.2 1.8-.9 2.6-1.5.2-.2.5-.3.6-.6.1-.2.1-.5-.1-.8" fill="#eb996e"/><path d="m518.2 193.4c.3 0 .3 2.2 2.1 3.8s4.2 1.4 4.2 1.7c0 .1-.5.4-1.5.4s-2.4-.3-3.5-1.3-1.6-2.3-1.6-3.2c-.1-.9.2-1.4.3-1.4z" fill="#263238"/><path d="m518 169.1c-.2.5-2.2.2-4.6.4s-4.3.8-4.6.3c-.1-.2.2-.7 1-1.3.8-.5 2-1 3.4-1.1s2.7.1 3.6.5c.9.5 1.3 1 1.2 1.2z" fill="#263238"/><path d="m536.5 171.3c-.4.4-1.7-.1-3.4-.1-1.7-.1-3.1.2-3.4-.3-.1-.2.1-.7.7-1.1s1.7-.7 2.8-.7c1.1.1 2.1.5 2.7 1s.8 1 .6 1.2z" fill="#263238"/><path d="m511.5 153.9c3.9 5.2-.2 12.6-4.7 17.2-4.5 4.7-10 10.1-8.8 16.5 1.4 7.4 11.6 12.1 10 19.5-.5 2.7-2.7 5-2.7 7.7 0 5 6.4 7.4 8.3 12 2.5 6.3-4.4 12.6-4.5 19.4-.1 3.9 2.1 7.5 2.2 11.3.2 7.9-9.1 13.7-16.8 11.8s-12.9-9.4-14.6-17.2c-1.7-7.7.9-18.6 2.1-26.4l-13.3 3.1c-2.5-2.4.9-4.9 1.5-8.2 1.4-8.5 7-15.6 9.6-23.8 2.3-7.1 2.3-14.8 3.3-22.2s3.3-15.2 9-20.1 15.5-5.5 20.1.4" fill="#263238"/><path d="m481.7 177.9c0-.1 2.2.6 5.9.2 3.6-.4 8.5-2.2 12.7-5.8 4.3-3.6 7.2-7.7 9.3-10.7 1-1.5 1.8-2.7 2.4-3.6.6-.8.9-1.3.9-1.3s-.2.5-.8 1.4c-.5.9-1.3 2.1-2.3 3.7-2 3-4.9 7.3-9.3 10.9-4.3 3.6-9.3 5.4-13 5.7-1.8.2-3.3 0-4.4-.1-.5-.1-.9-.2-1.2-.3-.1 0-.2-.1-.2-.1z" fill="#455a64"/><path d="m499 179.9s-.7.7-2.1 1.5-3.5 1.6-6 2-4.7.2-6.3-.2c-1.6-.3-2.5-.8-2.5-.8 0-.1 1 .2 2.5.5 1.6.2 3.8.4 6.1 0 2.4-.4 4.5-1.1 5.9-1.8 1.5-.7 2.3-1.3 2.4-1.2z" fill="#455a64"/><path d="m546.5 170c0 .1-2.2.2-4.6-1.2-2.3-1.4-3.4-3.4-3.3-3.4.1-.1 1.3 1.7 3.5 3 2.3 1.3 4.5 1.5 4.4 1.6z" fill="#455a64"/><path d="m545.6 175c0 .1-1.2.5-2.8.1-1.5-.4-2.5-1.3-2.4-1.4s1.1.5 2.6.9c1.4.3 2.6.2 2.6.4z" fill="#455a64"/><path d="m482.8 181.1c-.1 0-.7-2.1-.4-4.8.2-2.7 1.1-4.8 1.3-4.7.1.1-.5 2.1-.7 4.7-.4 2.6-.1 4.8-.2 4.8z" fill="#e8505b"/><path d="m344.5 349.9c-1-.2-9.1 37.7-8 52.4s8 66 8 66h82.9s10.4-49.9 8.5-65c-1.8-15.1-11.7-54.8-11.7-54.8z" fill="#263238"/><path d="m333.9 278.2-11.8-53.4-.7-8.8s-2.7-19.8-2.7-21.7c0-2.2-1.1-2.8-1.9-2.7-1.3.1-2.2 1.7-2.2 3.6 0 .7.2 11.1.2 11.1s-.5-.9-2.1-2.8-5.2-3-9-2.9c-3.7.2-4.8.5-4.8 2 0 .6.3 1 .7 1.4.7.6 1.6.8 2.5.8 6-.2 7.6 3 7.6 3l.1 1.2s-3.7-2.6-6.5-1.4c-.5.2-.8.4-1.1.7-1.6 0-3.1.9-4 2.3-.8 1.4-.9 3.3 0 4.7.4.7 1.1 1.3 1.9 1.2.4-.1.7-.4 1.1-.7.2-.1.3-.3.5-.4l.7 3.2s2 7.1 2.5 10.3l3.2 52.9c.4 7.3 6.8 12.9 14.1 12.3 7.9-.5 13.5-8.1 11.7-15.9z" fill="#ffbe9d"/><path d="m320.3 224.2c-1.1.3-2.2-.5-2.8-1.4-.6-1-.9-2.1-1.4-3.1-1.6-3-5.4-4.4-6.8-7.5-.2-.4-.3-1 .1-1.3.3-.3.8-.1 1.2.1 3.3 1.8 6.6 3.6 9.9 5.4" fill="#ffbe9d"/><path d="m320.5 216.3s-.3-.3-1-.7-1.7-1-2.9-1.7c-1.3-.7-2.7-1.5-4.3-2.4-.4-.2-.8-.5-1.2-.7s-.9-.6-1.6-.4c-.4.1-.6.5-.6.9 0 .3.1.6.2.9.2.5.5 1 .9 1.4 1.4 1.8 3.2 2.9 4.4 4.1.7.6 1.2 1.3 1.6 2s.6 1.4.9 2.1c.5 1.3 1.5 2.2 2.3 2.4s1.3 0 1.2-.1c0-.1-.5.1-1.2-.2s-1.5-1.1-2-2.4c-.3-.6-.5-1.4-.9-2.2s-1-1.5-1.6-2.2c-1.3-1.4-3.1-2.5-4.4-4.1-.3-.4-.6-.8-.8-1.3-.2-.4-.2-.9.1-.9.3-.1.7.2 1.1.4s.8.4 1.3.7c1.6.8 3.1 1.6 4.4 2.3 1.2.6 2.3 1.2 3 1.5.7.5 1.1.7 1.1.6z" fill="#eb996e"/><path d="m310 209.1c-.1 0 0-.9-.7-2-.4-.5-1-1-1.8-1.3s-1.8-.4-2.8-.4-2.1 0-3-.2-1.7-.6-2.2-1.1-.7-1.2-.6-1.5c.1-.4.2-.6.2-.6v.6c0 .4.1.9.6 1.3s1.2.7 2.1.9 1.8.2 2.9.2c1 0 2.1.1 3 .4s1.6.9 2 1.5.5 1.2.5 1.6c-.1.4-.2.6-.2.6z" fill="#eb996e"/><path d="m314.5 194.5c.1 0 .1.8.1 2.1v5c0 1.9.1 3.6.1 5v2.1c-.1 0-.2-.8-.3-2.1s-.2-3.1-.2-5c0-2 0-3.7.1-5s.2-2.1.2-2.1z" fill="#eb996e"/><path d="m307.7 211.5s-.2-.1-.6-.2-1-.4-1.6-.1c-.3.1-.5.5-.5.9s0 .9.1 1.4.1 1.1-.2 1.6-1 .8-1.6.8-1.2-.3-1.6-.7-.7-.9-.8-1.4c-.2-1-.1-1.9 0-2.7s.3-1.4.5-1.7c.2-.4.4-.5.4-.5s-.1.2-.3.6-.3 1-.4 1.7-.1 1.6.1 2.6c.2.9 1 1.8 2 1.8.5 0 1-.3 1.3-.7s.3-.9.2-1.4-.1-1-.1-1.4c0-.5.3-.9.7-1.1.8-.3 1.5 0 1.8.2.4.2.6.3.6.3z" fill="#eb996e"/><path d="m301.7 214.9s.1.2-.1.6c-.1.4-.5.9-1.2 1.1s-1.6 0-2.3-.7-1-1.7-1.1-2.7c0-1.1.3-2.1.9-2.8.5-.8 1.2-1.2 1.9-1.5.6-.3 1.2-.4 1.6-.4s.6 0 .6.1-.9 0-2 .6c-.6.3-1.2.8-1.7 1.5s-.8 1.6-.8 2.6.3 1.9.9 2.5 1.4.8 2 .7 1-.6 1.1-.9c.2-.4.2-.7.2-.7z" fill="#eb996e"/><path d="m309 221.9s.4-.1 1 0 1.5.5 2.2 1.3l-.4.1c0-.4.1-.9.2-1.4.6-2.7 2-4.5 2.1-4.4s-1.2 1.9-1.7 4.5c-.1.5-.2.9-.2 1.4l-.1.5-.3-.4c-.6-.7-1.4-1.1-2-1.3-.4-.3-.8-.3-.8-.3z" fill="#eb996e"/><path d="m308.6 204c.1 0-.3.8-1.2 1.2s-1.7.2-1.7.1.7-.1 1.5-.5c.8-.3 1.3-.8 1.4-.8z" fill="#eb996e"/><path d="m429 232.9c4.3 0 14.8 12.3 16.6 31.1.8 8.6 5.1 43.7 7.2 60.6.8 6.1-1.9 12.1-6.9 15.7-11.2 8.2-33.7 21-63.6 20.6l-18.1-15.2 58.8-24.7v-1.3l2.6-2.8-7.3-45c0-.1-6.9-39 10.7-39z" fill="#7575f9"/><path d="m413.7 153.8c.2 6.1 8.3 9.8 8.2 15.9 0 2.6-1.7 5-2 7.6-.4 3.5 1.5 6.8 2.2 10.2 1.5 7.1-2.6 14.6-8.7 18.4-6.1 3.9-13.8 4.6-21 3.6" fill="#263238"/><path d="m364.7 152.3c.2 3.3-1.9 6.2-4.1 8.6-2.2 2.5-4.6 5-5.1 8.2-.8 5.7 4.8 11.1 3.6 16.8-.6 3-3.1 5.5-3.6 8.6-.4 3 1.2 5.9 3.1 8.2 2 2.3 4.3 1.9 6 4.4 1.8 2.6 4.8 5.2 7.6 6.7 6.3 3.5 13.9-1.5 16.9-2.4" fill="#263238"/><path d="m414.9 157.3c.1-3-2.7-5.3-5.4-6.3-2.8-1.1-5.8-1.5-8.3-3.1-2.2-1.5-3.6-3.8-5.5-5.6-4.5-4.6-11.6-6.5-17.8-4.8s-11.3 6.9-12.9 13.2c-1.1 4.2-.3 9.2 3 12 3.9 3.3 9.6 2.5 14.5 1.5s10.5-2 14.7.9c2.5 1.8 3.9 4.6 5.4 7.2s3.4 5.3 6.3 6.3 6.8-.7 6.9-3.8" fill="#263238"/><path d="m375.5 226.3c0-6.8-.1-13.4-.1-13.4s-10.8-1.8-13-15.9c-1.1-7-.7-18.5-.1-27.9.6-8.5 6.2-18.8 14.6-17.9l26.3 6.7c2.6.3 4.5 2.5 4.4 5l-2.4 63.8c-.3 8.1-7 14.5-15.1 14.3-8.1-.1-14.5-6.6-14.6-14.7z" fill="#ffbe9d"/><path d="m366.8 177.2c0 1 .7 1.8 1.7 1.8 1 .1 1.8-.7 1.9-1.6 0-1-.7-1.8-1.7-1.8-1-.1-1.9.6-1.9 1.6z" fill="#263238"/><path d="m364.8 175.1c.2.2 1.6-.8 3.5-.8s3.4 1 3.6.7c.1-.1-.1-.5-.7-1s-1.7-.9-2.9-.9-2.2.4-2.8.9c-.6.6-.8 1-.7 1.1z" fill="#263238"/><path d="m385.7 177.6c0 1 .7 1.8 1.7 1.8 1 .1 1.8-.7 1.9-1.6 0-1-.7-1.8-1.7-1.8-1.1 0-1.9.7-1.9 1.6z" fill="#263238"/><path d="m383.9 175.5c.2.2 1.6-.8 3.5-.8s3.4 1 3.6.7c.1-.1-.1-.5-.7-1s-1.7-.9-2.9-.9-2.2.4-2.8.9c-.6.6-.8 1-.7 1.1z" fill="#263238"/><path d="m376.8 189.9c0-.1-1.2-.3-3.2-.6-.5-.1-1-.2-1-.5-.1-.4.1-.9.3-1.5.5-1.2 1-2.5 1.5-3.8 2.1-5.4 3.5-9.8 3.3-9.9s-2.1 4.2-4.1 9.6c-.5 1.3-1 2.6-1.4 3.8-.2.6-.5 1.2-.3 1.9.1.4.5.6.8.7s.6.1.8.1c2.1.3 3.3.3 3.3.2z" fill="#263238"/><path d="m375.4 212.9s9.5.6 18.9-5c-.2 0-5.2 9.8-18.7 8.3z" fill="#eb996e"/><path d="m377.6 194.6c.7-.9 1.9-1.4 3.1-1.3.8.1 1.7.5 2.2 1.2s.6 1.7.1 2.3c-.5.7-1.6.9-2.6.6-.9-.3-1.7-.9-2.5-1.5-.2-.2-.4-.3-.6-.6.1-.2.1-.5.3-.7" fill="#e8505b"/><path d="m382.5 191.3c-.3 0-.3 2.1-2.1 3.6s-4.1 1.3-4.1 1.6c0 .1.5.4 1.5.4.9 0 2.3-.3 3.4-1.2s1.6-2.1 1.7-3c0-.9-.2-1.5-.4-1.4z" fill="#263238"/><path d="m383 172.1c.2.5 2.1.3 4.4.6 2.3.2 4.1.9 4.4.4.1-.2-.2-.7-.9-1.2s-1.9-1-3.3-1.2-2.6.1-3.5.4c-.7.3-1.1.7-1.1 1z" fill="#263238"/><path d="m365.5 169.5c.3.4 1.7 0 3.3 0 1.6-.1 3 .3 3.3-.2.1-.2-.1-.7-.7-1.1s-1.6-.8-2.7-.7c-1.1 0-2.1.4-2.6.9-.5.4-.7.8-.6 1.1z" fill="#263238"/><path d="m409.2 205.1c-3.9.8-4.2-1.2-7.1-3.9s-4.4-6.8-3.9-10.7c.4-3.5 2.3-7 1.1-10.3-1.6-4.3-7.7-5.7-9.3-10-.9-2.5-.1-5.5-1.2-7.9-1-2.3-3.4-3.6-5.8-4.5s-4.9-1.4-6.9-3c-2-1.5-3.2-4.5-1.9-6.6 10.5 1.3 20.9 3.8 30.8 7.5 2.3.9 4.7 1.9 6.1 3.9 1.4 2.2 1.4 5 1.2 7.6-.6 12.7-1.2 25.3-1.8 38" fill="#263238"/><path d="m418 176.3c.4-4.6 4.2-8.8 8.8-9.6s9.6 1.7 11.7 5.9c2 4 1.3 8.8-.5 12.9-2.2 4.8-6.6 9.2-11.9 9-5-.2-8.9-4.6-10.4-9.3-1.4-4.8-.9-9.8-.3-14.8" fill="#263238"/><path d="m420.8 195.6s.3-.2.7-.8.9-1.6 1.1-2.8c.2-1.3.2-2.8-.1-4.5s-.8-3.4-1.3-5.2c-.4-1.8-.6-3.6-.3-5.2s1-2.9 1.4-4.1.3-2.3.1-3-.5-1-.5-1 .2.4.3 1c.1.7.1 1.7-.3 2.8-.4 1.2-1.1 2.5-1.5 4.2s-.2 3.6.3 5.5c.4 1.9 1 3.6 1.3 5.2s.4 3.1.3 4.3c-.4 2.4-1.6 3.5-1.5 3.6z" fill="#455a64"/><path d="m421 178.7s.6 1 2.2 2.1c1.5 1.1 4 2.2 6.9 2.3 2.9 0 5.5-1 7-2 1.6-1 2.3-2 2.2-2-.1-.1-.9.8-2.5 1.7s-4 1.8-6.8 1.8c-2.8-.1-5.2-1-6.7-2-1.4-1.1-2.2-2-2.3-1.9z" fill="#455a64"/><path d="m421.7 180.9c-.1 0 .3.9 1.2 2.2s2.4 2.9 4.5 4.1 4.2 1.8 5.7 2c1.6.2 2.5.1 2.5 0s-1-.1-2.4-.4c-1.5-.3-3.5-1-5.5-2.1-2-1.2-3.5-2.7-4.5-3.8-.9-1.2-1.4-2.1-1.5-2z" fill="#455a64"/><path d="m418.2 200.3s.1-.1.2-.2.2-.3.4-.6c.3-.5.7-1.3.9-2.5.2-1.1.2-2.6-.2-4.2s-1.5-3.3-3.3-4.4c-1.7-1.2-3.8-2-5.2-3.9-.7-.9-1-2.1-.8-3.3s.7-2.4 1.2-3.7c1.1-2.5 1.1-5.7-.2-8.4-.6-1.4-1.6-2.6-2.9-3.6s-2.8-1.4-4.3-1.8c-1.5-.3-3-.6-4.5-1-1.4-.4-2.8-1.1-3.7-2-1-1-1.4-2.3-1.6-3.7s-.3-2.8-.7-4.1c-.7-2.6-2-5-3.8-6.7s-3.9-2.7-6-3-4 .1-5.4.8c-1.5.7-2.5 1.8-3.2 2.7-.7 1-1 1.8-1.1 2.4s-.1.9-.1.9c.1 0 .1-1.3 1.4-3.2.7-.9 1.7-1.9 3.1-2.6s3.3-1 5.2-.7c2 .3 4 1.3 5.7 2.9s3 3.9 3.6 6.4c.3 1.3.4 2.6.6 4s.7 2.9 1.8 4 2.5 1.8 4 2.2 3 .6 4.5 1c1.5.3 2.9.8 4.1 1.7s2.1 2 2.7 3.3c1.2 2.6 1.2 5.5.2 8-.5 1.2-1 2.5-1.2 3.8s.1 2.7.9 3.7c1.5 2 3.8 2.8 5.4 3.9 1.7 1.1 2.7 2.6 3.2 4.2.5 1.5.5 2.9.3 4-.4 2.7-1.3 3.7-1.2 3.7z" fill="#455a64"/><path d="m417.2 161s.1-.2.2-.7c0-.4 0-1.1-.5-1.9-.4-.7-1.2-1.5-2.4-1.9s-2.6-.4-4-.1c-1.5.3-3 .9-4.7 1.2-1.6.3-3.6.4-5.1-.8-1.5-1.1-2.2-3.1-3-5.1s-1.8-4-3.3-5.8c-2.9-3.6-6.8-6-10.7-6.9-2-.4-3.9-.4-5.6.1s-3.1 1.5-4.1 2.7-1.5 2.5-1.6 3.7.1 2.2.5 3c.3.8.7 1.3 1.1 1.6.3.3.5.4.5.4.1-.1-.8-.6-1.4-2.1-.3-.8-.5-1.8-.3-2.9.1-1.1.6-2.4 1.5-3.5s2.3-2 3.9-2.5 3.5-.5 5.4-.1c3.7.9 7.5 3.3 10.3 6.7 1.4 1.7 2.4 3.7 3.2 5.6s1.6 4 3.2 5.3c.8.6 1.8 1 2.8 1 1 .1 1.9 0 2.8-.2 1.7-.4 3.2-1 4.7-1.3 1.4-.3 2.8-.3 3.8 0 1.1.4 1.8 1.1 2.3 1.8s.6 1.3.5 1.7c.1.7 0 1 0 1z" fill="#455a64"/><path d="m430.2 233.1-25-6.4h-29.8s-15.4.9-24 8.5c-.2.2-2.9 2.6-4.7 7.7l-13.2 30.3-6.8-38-23.8 3.4 3.8 65.4c1.4 13.9 11.6 25.3 25.3 28.2l13.5-15.2c1.6 12.4 2.9 23.1 3.1 22.9.3-.3 74.1-4.8 74.1-4.8l-7.5-25.2z" fill="#6060fc"/><path d="m335.7 148.5c.1-9.4-7.5-17.1-16.9-17.2s-17.1 7.5-17.2 16.9c-.1 6.8 3.9 12.7 9.6 15.5v4.3l14.9.2s.1-2.4.2-4.6c5.5-2.8 9.3-8.5 9.4-15.1z" fill="#6060fc"/><path d="m320.7 168s0-.1 0-.2 0-.4.1-.6c.1-.5.2-1.3.3-2.4.2-1 .4-2.3.7-3.7s.8-3 1.6-4.7c.4-.8.8-1.7 1.4-2.5.3-.4.7-.8 1.2-1s1.1-.2 1.6.1c.2.1.5.4.5.7.1.3.1.6-.1.9-.3.5-.8.9-1.3 1.1-1.1.4-2.4.3-3.5-.3s-2-1.6-2.4-2.9c-.2-.6-.3-1.3-.1-2s.8-1.2 1.6-1.2c.4 0 .7.3.9.6s.2.7.1 1.1c-.2.7-.7 1.2-1.2 1.7-1.1.9-2.6 1.4-4 1.1-1.4-.2-2.7-1.2-3.3-2.5-.3-.6-.4-1.4-.1-2.1.1-.3.4-.6.8-.7.3-.1.7-.1 1 .1s.6.4.7.8c.2.3.2.7.2 1 0 .7-.1 1.3-.3 1.9-.4 1.2-1.3 2.3-2.4 2.8-1.1.6-2.4.7-3.5.4-.6-.1-1.1-.4-1.5-.8-.4-.5-.5-1.2-.1-1.6.2-.2.5-.3.8-.4.3 0 .6 0 .8.2.5.3.8.7 1 1.2.4.9.8 1.8 1.1 2.7 1.3 3.5 2.3 6.3 2.9 8.3.3 1 .5 1.8.7 2.3.1.3.1.5.2.6 0 .1.1.2.1.2s0-.1-.1-.2c0-.1-.1-.3-.2-.6-.2-.5-.4-1.3-.7-2.3-.7-2-1.6-4.8-3-8.2-.3-.9-.7-1.8-1.1-2.7-.2-.4-.5-.9-1-1.1-.4-.2-1-.2-1.4.2-.3.4-.2 1 .1 1.4s.9.6 1.4.8c1.1.3 2.3.1 3.4-.4s1.9-1.5 2.3-2.7c.2-.6.3-1.2.3-1.9 0-.6-.3-1.3-.9-1.6-.3-.1-.6-.2-.9-.1s-.5.3-.6.6c-.2.6-.2 1.3.1 1.9.5 1.2 1.8 2.1 3.1 2.4 1.4.2 2.8-.2 3.8-1.1.5-.4 1-.9 1.1-1.6.1-.3 0-.6-.1-.9s-.4-.5-.7-.5-.6.1-.9.3c-.2.2-.4.5-.5.8-.2.6-.1 1.3.1 1.9.4 1.2 1.2 2.2 2.3 2.8 1.1.5 2.3.6 3.4.3.5-.2 1-.6 1.2-1 .3-.5.1-1.1-.4-1.3-.4-.3-1-.3-1.5-.1s-.8.6-1.1 1c-.6.8-1 1.7-1.4 2.5-.8 1.7-1.3 3.3-1.6 4.7-.4 1.4-.6 2.7-.8 3.7s-.3 1.8-.4 2.3c0 .3-.1.5-.1.6.3-.2.3-.1.3-.1z" fill="#263238"/><path d="m325 170.9-12.8-.1c-.5 0-1-.4-1-1 0-.5.4-1 1-1l12.8.2c.5 0 1 .4 1 1-.1.5-.5.9-1 .9z" fill="#263238"/><path d="m324.9 171.7-12.8-.1c-.5 0-1 .4-1 1 0 .5.4 1 1 1h1.4l1.8 3.6c.2.4.6.7 1.1.7h4.6c.5 0 .9-.3 1.1-.7l1.9-3.5h1c.5 0 1-.4 1-1-.1-.5-.5-1-1.1-1z" fill="#263238"/><path d="m307.8 137.3c1.2-1 2.4-1.8 3.4-2.2 1.1-.5 2-.7 2.6-.7.6-.1 1 0 1 .1.1.3-1.2.8-3 1.9-1.7 1.1-3.9 3.1-5.3 5.9-1.3 2.8-1.5 5.8-1.3 7.8.2 2.1.7 3.4.4 3.5-.1.1-.4-.2-.8-.7s-.8-1.4-1.1-2.5-.5-2.5-.4-4.1.5-3.3 1.2-4.9" fill="#fff" opacity=".2"/><path d="m319 135.3c-1.1 0-2-.3-2.1-.9 0-.3.2-.6.6-.8s1-.4 1.6-.4 1.2.2 1.6.4.6.6.5.8" fill="#fff" opacity=".2"/><path d="m321.9 177.5s-.3-.1-.9-.3c-.5-.2-1.3-.3-2.2-.3s-1.6.2-2.2.4c-.5.2-.9.3-.9.3s.3-.2.8-.5c.5-.2 1.3-.4 2.2-.4s1.7.2 2.2.4c.7.1 1 .3 1 .4z" fill="#455a64"/><ellipse cx="318.8" cy="173.6" fill="#455a64" rx=".1" ry="5.2" transform="matrix(.01044294 -.9999 .9999 .01044294 141.866 490.6119)"/><path d="m323.2 175.2s-.5.1-1.3.1-1.9.1-3.1.1-2.3 0-3.1-.1c-.8 0-1.3-.1-1.3-.1h1.3 3.1 3.1z" fill="#455a64"/><path d="m348.3 291s-.3-.3-.8-.9c-.4-.6-1-1.6-1.3-3-.8-2.7-.7-6.6.6-10.6s3.1-7.3 4.1-9.8c.5-1.3.9-2.3 1.1-3s.4-1.1.4-1.1 0 .4-.2 1.2c-.2.7-.5 1.8-1 3.1-.9 2.6-2.6 6-3.9 9.9s-1.4 7.7-.8 10.3c.8 2.5 2 3.8 1.8 3.9z" fill="#263238"/><path d="m417.4 265.2s.1.2.1.5c.1.4.2.9.3 1.5.3 1.4.6 3.2 1 5.5.8 4.7 1.9 11.1 3.1 18.2s2.1 13.6 2.8 18.3c.3 2.3.6 4.2.7 5.6.1.6.1 1.1.1 1.5v.5s-.1-.2-.1-.5c-.1-.4-.1-.9-.2-1.5-.2-1.4-.5-3.3-.9-5.5-.8-4.7-1.8-11.2-2.9-18.2-1.1-7.1-2.2-13.5-2.9-18.2-.4-2.3-.6-4.2-.9-5.5-.1-.6-.2-1.1-.2-1.5 0-.5 0-.7 0-.7z" fill="#263238"/><path d="m332.8 292c-.1 0 0-1.1.2-2.8.1-1.7.3-4.1.4-6.7s0-5 0-6.7c-.1-1.7-.1-2.8 0-2.8s.2 1 .4 2.8c.2 1.7.3 4.1.2 6.7s-.3 5-.5 6.7c-.4 1.7-.6 2.8-.7 2.8z" fill="#263238"/><path d="m434.4 323.4c-.1 0-.2-.7-.7-1.6-.5-1-1.3-2.2-2.6-3.2s-2.8-1.4-3.9-1.6-1.8-.1-1.8-.2.7-.2 1.8-.2c1.1.1 2.7.5 4.1 1.5s2.3 2.4 2.7 3.5.5 1.8.4 1.8z" fill="#263238"/><path d="m428.9 326.4c-.1.1-.9-1.7-2.6-3.3s-3.5-2.2-3.5-2.3 2 .3 3.8 1.9c1.9 1.7 2.4 3.7 2.3 3.7z" fill="#263238"/><path d="m410.5 326.4c-.1-.1 2.8-1.3 6.2-2.8 3.5-1.5 6.2-2.8 6.3-2.7s-2.6 1.7-6.1 3.2c-3.4 1.5-6.4 2.4-6.4 2.3z" fill="#263238"/><path d="m313.3 284.2s14.4 68.4 14.4 67.5c0-.8 72.5 3.1 85.4 3.7l2.7-.7 20.5-18.8-23.5-1.9-8.4-48.1z" fill="#e0e0e0"/><ellipse cx="410" cy="320.3" fill="#455a64" rx=".3" ry="34.9" transform="matrix(.9864 -.1646 .1646 .9864 -47.1466 71.8748)"/><path d="m404.5 285.9s-.2.2-.5.5-.9.7-1.5 1.4c-.3.3-.6.8-.4 1.3.1.6.2 1.1.3 1.8.2 1.3.5 2.7.8 4.3 1.1 6.4 2.6 15.2 4.2 24.9s3 18.5 4.1 24.9c.5 3.2.9 5.7 1.2 7.6.1.9.2 1.5.3 2.1.1.5.1.7.1.7s-.1-.2-.2-.7-.2-1.2-.4-2c-.3-1.8-.8-4.4-1.3-7.5-1.1-6.4-2.6-15.2-4.2-24.9s-3-18.5-4.1-24.9c-.3-1.6-.5-3-.7-4.3-.1-.6-.2-1.2-.3-1.8-.2-.6.2-1.1.5-1.5.6-.7 1.2-1.1 1.6-1.4.3-.3.5-.5.5-.5z" fill="#455a64"/><path d="m401.9 288.4s-.3 0-.9 0-1.5 0-2.6 0c-2.3 0-5.5-.1-9.4-.1-8-.1-18.9-.3-31.1-.5-12.1-.2-23.1-.4-31.1-.5-3.9-.1-7.1-.1-9.4-.1-1.1 0-1.9 0-2.6-.1-.6 0-.9 0-.9-.1h.9 2.6 9.4c8 0 18.9.1 31.1.4 12.1.2 23.1.5 31.1.7 3.9.1 7.1.2 9.4.3 1.1 0 1.9.1 2.6.1.6-.1.9-.1.9-.1z" fill="#455a64"/><path d="m412.6 336h1.4c1 0 2.3.1 3.8.2 3.2.2 7.7.4 12.7.7h.6l-.5.4c-.3.2-.6.5-.9.8-4 3.4-7.7 6.5-10.3 8.7-1.3 1-2.3 1.9-3.2 2.6-.8.6-1.2.9-1.2.9s.4-.4 1.1-1c.8-.7 1.8-1.6 3.1-2.7 2.6-2.3 6.2-5.4 10.2-8.8.3-.3.6-.5.9-.8l.2.5c-5-.3-9.4-.6-12.7-.9-1.5-.1-2.8-.2-3.8-.3-.9-.2-1.4-.3-1.4-.3z" fill="#455a64"/><path d="m349.6 353.8-.9-11.1s3.7-.5 4 3.6v-6.9s4.2-.9 5.2 4.6c.9 5.6 2.3 8.6 2.3 8.6l2.3 1.2-2.1-12.9s4.5.4 5.3 4.6 2 7.2 2 7.2l7.1 2s-4.1-3.6-3.7-4.8.1-1.1.9-1.3 2.6.4 3.8 1c1.3.7 8.8 5.1 8.8 5.1v5.5s-17.5 1.3-21.4.5l-7.6-1.8c-2.9-.4-5.1-2.4-6-5.1z" fill="#ffbe9d"/><ellipse cx="361.5" cy="318.1" fill="#fafafa" rx="4.8" ry="5.4" transform="matrix(.9865 -.1638 .1638 .9865 -47.2054 63.4931)"/><path d="m425.5 316.5c3-.9 6.3-1 9.1.3s5.1 3.9 5.5 7c.1.7.1 1.5-.2 2.1-.2.7-.8 1.3-1.5 1.5-1.1.3-2.3-.4-2.9-1.4s-.9-2.1-1.3-3.2c-1.4-3.6-5.2-6.2-9-6.3.2 0 .3.1.5.1" opacity=".4"/><path d="m372.9 230.5c.6-1.9.1-3.9-.3-5.8-.3-1.9-.4-4.2.9-5.6 1.3-1.5 3.5-1.6 5.5-1.7 8.1-.4 16.1-.7 24.2-1.1 1.7-.1 3.6 0 4.6 1.3.7.8 1.1 2 .9 3-1.2 4.6-.9 8.5 1 11.7" fill="#6060fc"/><path d="m405.7 228.2s-.4.3-1.1.9c-.7.5-1.8 1.3-3.2 2-2.8 1.5-7 3.2-11.9 3.6-2.4.2-4.8.2-6.9-.1s-3.9-.9-5.3-1.7-2.4-1.7-2.9-2.4c-.3-.3-.5-.6-.6-.8s-.2-.3-.2-.3c.1-.1 1 1.8 3.9 3.2 1.4.7 3.2 1.3 5.2 1.6 2.1.3 4.4.3 6.7.1 4.8-.4 8.9-2 11.7-3.4 3-1.5 4.6-2.8 4.6-2.7z" fill="#263238"/><path d="m389.2 234.8c-.1 0-.3-1-.6-2.7s-.7-4-1.2-6.5c-.2-1.3-.4-2.5-.6-3.6s-.2-2.2.1-3 .8-1.4 1.3-1.6c.4-.2.7-.2.7-.2s-.3.1-.6.4c-.4.3-.8.8-1 1.6s-.2 1.8 0 2.8c.2 1.1.4 2.3.6 3.6.4 2.5.8 4.8 1 6.5.3 1.7.4 2.7.3 2.7z" fill="#263238"/><path d="m401.8 231c-.1 0-.2-.8-.5-2.2s-.5-3.3-.7-5.4c-.3-2.1-.4-4-.6-5.3-.1-.7-.5-1.1-.8-1.3s-.5-.2-.5-.3c0 0 .2-.1.6.1s.8.7 1 1.4c.3 1.4.5 3.3.8 5.4s.5 4 .6 5.4c.1 1.3.1 2.2.1 2.2z" fill="#263238"/><path d="m378.7 217.4c0 .1-.8.3-1.6 1.4-.4.5-.7 1.2-.9 2.1s-.2 1.8-.1 2.8c.2 2.1.4 3.9.4 5.3.1 1.4.1 2.2 0 2.2s-.2-.8-.4-2.2-.4-3.2-.6-5.3c-.1-1-.1-2.1.1-3s.6-1.7 1.1-2.2c1.1-1.1 2.1-1.2 2-1.1z" fill="#263238"/><path d="m280.1 364.8c0 5.1 3 103.8 3 103.8l-42-.2-7.3-43.9-1.9 43.9h-40.3l4.4-108.3z" fill="#455a64"/><path d="m156.2 323.9-21.5-32 15.9-12.9 26.9 25s11.6-65 23-68.9l-.9 100.8c-15.3 7.3-33.8 2.2-43.4-12z" fill="#263238"/><path d="m112.3 173.2 4.6 62.3 74.7 143.3 43.3-25-73.7-140.1z" fill="#6060fc"/><path d="m161.9 214c-1.2 2.2-4.5 2.8-6.4 1.3 1.1 4.5-.9 9.6-4.8 12-3.9 2.5-9.4 2.2-12.9-.7-.6 4.5-3.8 8.6-8 10.3s-9.4 1-12.9-1.9l-4.5-61.8z" fill="#fff" opacity=".7"/><path d="m114.1 198.2s10.1 6.4 18.2-8.5l-20-16.6z" fill="#6060fc"/><path d="m208.1 367.1c-.1.1-16-31.3-35.5-70.1s-35.2-70.2-35-70.3c.1-.1 16 31.3 35.5 70.1s35.1 70.3 35 70.3z" fill="#fff"/><path d="m226.1 356.4c-.1.1-16-31.3-35.5-70.1s-35.2-70.2-35-70.3c.1-.1 16 31.3 35.5 70.1 19.4 38.7 35.1 70.2 35 70.3z" fill="#fff"/><path d="m138.2 256.7-9.7 3.9-2.1 7.8 3.3 13 7.8 8.3 5.3-4.4.3-8 .6-4.5s4.8-1.5 4.9-2.2-.6-3.2-1.3-3.3-5.7 1.7-5.7 1.7 5.9-4.7 5.8-5.5c-.2-.8-.8-2.7-2-2.9s-10.8 4.3-10.8 4.3l-1.6 3.5-1.4-5.7c.2.2 8.7-2.2 6.6-6z" fill="#b78876"/><path d="m139.4 275c-.1 0-.2-.3-.3-1-.1-.6 0-1.5.3-2.4s.9-1.6 1.4-2 .8-.6.9-.5-1.2 1-1.8 2.7c-.7 1.6-.4 3.1-.5 3.2z" fill="#aa6550"/><path d="m134.8 273.3c-.1 0 .3-.9.4-2.5.1-.8.1-1.8.5-2.8.2-.5.5-1.1.9-1.5.4-.5 1-.8 1.6-1 2.3-.8 4.4-1.5 5.9-2s2.5-.8 2.5-.7-.9.5-2.4 1c-1.5.6-3.6 1.3-5.9 2.1-.6.2-1.1.5-1.4.9-.4.4-.6.8-.8 1.3-.4 1-.4 1.9-.6 2.7-.2 1.6-.7 2.5-.7 2.5z" fill="#aa6550"/><ellipse cx="132.9" cy="269.7" fill="#aa6550" rx="1.9" ry=".3" transform="matrix(.1629 -.9866 .9866 .1629 -154.8295 356.832)"/><path d="m263.7 216.4-8.5-2.9-31.8 7.3-2.8 2.3-16.8 155.7c7.2 7.4 30 8.9 42.9 6.7z" fill="#6060fc"/><path d="m264.3 216.7-4.1-2s-9 39.6-9 65.8-5.7 121.1-5.7 121.1l42.9-1.1v-104.9z" fill="#263238"/><path d="m203.8 403.1-16.2-4.8 5.7-76.7-1.1-55.6 8.5-31 20.2-12.5c-.1 0-16 171.4-17.1 180.6z" fill="#263238"/><path d="m237.7 235.5c-8.1-.7-14.3-7.5-14.3-15.6l.1-13.9s-12.9-2-13-14.9c-.2-12.9 2.1-42.4 2.1-42.4 14.9-6.4 32.1-4.2 44.9 5.6l1.9 1.5-4.7 65.2c-.7 8.8-8.3 15.3-17 14.5z" fill="#b78876"/><path d="m223.4 205.8s8.1.7 16.8-4.8c0 0-4 9.3-16.8 8.1z" fill="#aa6550"/><path d="m257.7 169.1c.2-.1 8.8-2.6 8.6 6.2-.3 8.8-9.1 6.7-9.1 6.4 0-.2.5-12.6.5-12.6z" fill="#b78876"/><path d="m260 178.5s.1.1.4.2c.2.1.7.2 1.1.1.9-.3 1.8-1.8 1.9-3.3 0-.8-.1-1.6-.4-2.2-.2-.7-.6-1.1-1.1-1.2s-.8.1-.9.4c-.1.2-.1.4-.1.4s-.2-.2-.1-.5c0-.2.2-.4.4-.5.2-.2.5-.2.9-.2.7.1 1.3.7 1.6 1.4s.5 1.6.5 2.5c-.1 1.8-1.1 3.4-2.4 3.7-.6.1-1.1-.1-1.4-.3-.4-.3-.4-.5-.4-.5z" fill="#aa6550"/><path d="m216.7 168.5c0 1 .8 1.8 1.8 1.9s1.9-.7 1.9-1.7-.8-1.8-1.8-1.9c-1 0-1.9.7-1.9 1.7z" fill="#263238"/><path d="m214.9 166.8c.2.2 1.6-.8 3.6-.8s3.4 1 3.6.8c.1-.1-.1-.5-.8-1-.6-.5-1.7-.9-2.9-.9s-2.3.5-2.9.9c-.5.5-.7.9-.6 1z" fill="#263238"/><path d="m236.1 169.3c0 1 .8 1.8 1.8 1.9s1.9-.7 1.9-1.7-.8-1.8-1.8-1.9c-1 0-1.8.8-1.9 1.7z" fill="#263238"/><path d="m234.4 167.2c.2.2 1.6-.8 3.6-.8s3.4 1 3.6.8c.1-.1-.1-.5-.8-1-.6-.5-1.7-.9-2.9-.9s-2.3.5-2.9.9c-.5.4-.8.9-.6 1z" fill="#263238"/><path d="m227.2 181.8c0-.1-1.2-.3-3.2-.6-.5-.1-1-.2-1.1-.5-.1-.4.1-.9.3-1.5.5-1.2 1-2.5 1.5-3.8 2.1-5.5 3.6-10 3.4-10.1s-2.1 4.3-4.2 9.8c-.5 1.3-1 2.6-1.4 3.9-.2.6-.5 1.2-.3 2 .1.4.5.7.8.7.3.1.6.1.9.1 2 .1 3.3.1 3.3 0z" fill="#263238"/><path d="m233.8 159.4c.2.5 2.2.3 4.5.6 2.3.2 4.2.9 4.5.4.1-.2-.2-.7-.9-1.3-.7-.5-1.9-1-3.3-1.2s-2.7.1-3.5.4c-.9.4-1.3.9-1.3 1.1z" fill="#263238"/><path d="m215.7 161.1c.3.4 1.7 0 3.3 0 1.6-.1 3 .3 3.3-.2.1-.2-.1-.7-.7-1.1s-1.6-.8-2.7-.7c-1.1 0-2.1.4-2.7.9-.5.4-.7.9-.5 1.1z" fill="#263238"/><path d="m206.2 140.6c-.1-1.6.5-3.3 1.8-4.2s3.3-.9 4.4.3c-.6-2.1 1.2-4.6 3.4-4.8 2.1-.1 3.9 1.5 5.9 2s4.1.1 6-.7 3.7-1.8 5.6-2.5c4-1.5 8.6-1.3 12.5.5s7 5.2 8.5 9.2c2.8-.9 6 .5 7.7 2.9s2.2 5.5 1.8 8.4c-.2 2-.8 3.9-1.5 5.8v.5c-.1 7.1-.9 15.4-4 15.4-5.3.1-4-9.8-4-9.8-6.5-2.5-4.1-12.2-5.7-13.6-1.6-1.5-5-4.9-18.5 2-5.2 2.7-12.2 2.6-16 1.7-.1 0-.2 0-.3-.1h-.1-.1c-1.2-.3-2.4-.8-3.5-1.5-1.2-.8-2.3-1.8-2.9-3.2-.5-1.4-.3-3 .7-4-.8-1.2-1.5-2.7-1.7-4.3z" fill="#263238"/><path d="m225.5 187.9c.3.8.6 1.6 1.1 2.2.5.7 1.3 1.2 2.1 1.2.9 0 1.8-.5 2.3-1.2s.7-1.7.6-2.6c0-.8-.4-1.8-1.2-1.9-.3 0-.7.1-1 .2-1.4.6-2.8 1.1-4.2 1.7" fill="#aa6550"/><path d="m227.2 191.4c0-.1 1 .2 2.3-.3.6-.3 1.3-.8 1.7-1.6s.5-1.8.1-2.8c-.1-.2-.2-.4-.4-.6s-.1-.2-.3-.1c-.2 0-.5.2-.7.3s-.5.2-.7.3c-.9.4-1.7.7-2.4.9-1.4.5-2.3.8-2.3.7s.8-.5 2.1-1.2c.7-.3 1.5-.7 2.4-1.1.2-.1.5-.2.7-.3s.4-.2.8-.3c.2 0 .4-.1.6 0s.4.2.5.4c.2.3.4.5.5.8.5 1.2.4 2.4-.1 3.4s-1.4 1.5-2.2 1.7-1.4.2-1.8.1c-.6-.1-.8-.3-.8-.3z" fill="#263238"/><path d="m249.2 148.7s.1-.6 0-1.6-.7-2.4-2-3.6-3.4-2-5.8-1.9c-2.4 0-4.9.8-7.5 1.7-1.3.4-2.6.8-3.9 1.1s-2.6.4-3.8.5c-2.4.1-4.6-.3-6.3-.8s-3.1-1.2-4-1.7c-.4-.2-.8-.5-1-.6-.2-.2-.3-.2-.3-.2s.5.3 1.4.7c.9.5 2.2 1.1 4 1.6 1.7.5 3.9.8 6.3.7 1.2 0 2.4-.2 3.7-.5s2.5-.7 3.9-1.1c2.6-.9 5.2-1.7 7.6-1.7s4.7.8 6 2.1c1.4 1.3 1.9 2.8 2 3.8 0 1-.3 1.5-.3 1.5z" fill="#455a64"/><path d="m259.2 170.5s-.1-.1-.2-.3-.2-.5-.4-.8c-.3-.7-.7-1.8-1-3.2s-.5-3.1-.3-5c.1-1.9.7-3.9 1.1-6 .5-2.1.6-4.2 0-5.9-.3-.9-.7-1.6-1.2-2.2s-1.2-1-1.8-1.2c-1.3-.5-2.5-.3-3.2.1s-1 .7-1 .7.2-.4.9-.8 1.9-.7 3.3-.2c.7.2 1.4.6 2 1.3.6.6 1 1.4 1.3 2.3.6 1.8.5 4 0 6.1-.4 2.1-1 4.1-1.2 5.9s0 3.5.2 4.9c.3 1.4.6 2.5.9 3.2.5.7.7 1.1.6 1.1z" fill="#455a64"/><path d="m250.5 147.7s0-.2 0-.5c0-.4 0-.9.1-1.5 0-1.3.1-3.2-.6-5.3-.3-1.1-.9-2.2-1.7-3.2s-2-1.9-3.4-2.3-3-.3-4.6.2c-1.6.4-3.1 1.2-4.6 2.1s-3 1.7-4.6 2.3-3.2.9-4.7.9-3-.2-4.3-.5c-1.3-.4-2.5-.9-3.5-1.4-2-1.2-3.3-2.5-4.1-3.5-.4-.5-.7-.9-.8-1.2-.2-.3-.3-.4-.2-.5 0 0 .1.1.3.4s.5.7.9 1.2c.8 1 2.2 2.3 4.2 3.4 1 .5 2.2 1 3.4 1.4 1.3.3 2.7.5 4.2.5s3.1-.4 4.6-.9c1.5-.6 3-1.5 4.5-2.3 1.5-.9 3.1-1.7 4.7-2.1s3.3-.6 4.8-.2 2.7 1.4 3.6 2.4c.9 1.1 1.4 2.3 1.7 3.4.6 2.2.5 4.1.5 5.4 0 .6-.1 1.1-.1 1.5-.3.1-.3.3-.3.3z" fill="#455a64"/><path d="m264.3 216.7s30.7 9.8 32.7 15.1c1.5 4 17.6 52.4 21.1 83.9 1.4 12.8-8.1 24.3-21 25.5-20.8 1.9-50.9 4.4-50.9 2.7v-26.1l39.1-5.8-14.5-42.5z" fill="#263238"/><path d="m224.9 338.6c4 1 21.3 1 21.3 1v-20.5s-7.5-3.2-9.6-5.1-8-12.9-8-12.9-3.6 2-2.7 6.3c1 4.5 2.8 5.1 3 6.9 0 0 .2.5.2.5.4 2.5-2 4.7-2 4.7.1 0-2-1.3-2.6-1.3-3.6-.4-8 2.2-8 3.6 0 0-.1 3.9 0 4.5s2 1.4 2 1.4-.6 2.6 0 3.8 2.5 2 2.5 2 1.7 4.5 3.9 5.1z" fill="#b78876"/><path d="m229.1 335.3c0 .1-1.9.3-4.2-.2s-3.9-1.4-3.9-1.5c.1-.1 1.8.5 4 1 2.3.4 4.1.5 4.1.7z" fill="#aa6550"/><path d="m228.1 329.1c0 .1-2.1.6-4.7.2-2.6-.3-4.6-1.4-4.5-1.5s2 .6 4.6 1c2.5.4 4.6.2 4.6.3z" fill="#aa6550"/><path d="m227.5 311.5c.1 0 .7.9 1.4 2.5.2.4.3.9.4 1.4s.2 1.2 0 1.8c-.3 1.2-1.3 2.3-2.5 3-.6.4-1.3.6-1.9.8-.7.1-1.3.2-1.9.2-1.2 0-2.2 0-3.1 0-1.8 0-2.8.3-2.9.2 0-.1 1-.5 2.8-.6.9-.1 2-.1 3.1-.2.6 0 1.2-.1 1.8-.2s1.2-.4 1.8-.7c1.1-.7 2-1.6 2.3-2.7.2-.5.1-1 .1-1.5-.1-.5-.2-1-.4-1.4-.5-1.6-1.1-2.6-1-2.6z" fill="#aa6550"/><path d="m285.8 311.9s-.5.1-1.5.3c-1.1.2-2.5.4-4.2.7-3.6.6-8.5 1.4-14 2.2s-10.4 1.5-14 2-5.8.7-5.8.6c.4-.1.9-.1 1.5-.3 1.1-.2 2.5-.4 4.2-.7 3.7-.6 8.6-1.3 14-2.2 5.5-.8 10.4-1.5 14-2 1.7-.2 3.2-.4 4.2-.6 1 0 1.6-.1 1.6 0z" fill="#455a64"/><path d="m302.4 308c0 .1-1.2.1-3.1 0s-4.5-.2-7.4-.4c-1.4-.1-2.8-.2-4 0-1.2.3-2.1.9-2.6 1.7s-.5 1.6-.4 2c.1.5.3.7.3.8 0 0-.3-.2-.5-.7s-.2-1.4.2-2.3c.5-.9 1.5-1.6 2.8-1.9s2.7-.2 4.1-.1c2.9.2 5.5.4 7.4.6 2 .1 3.2.2 3.2.3z" fill="#455a64"/><ellipse cx="290.5" cy="313.5" fill="#455a64" rx=".3" ry="5.7" transform="matrix(.2837 -.9589 .9589 .2837 -92.6048 503.1333)"/><ellipse cx="278.5" cy="286.3" fill="#455a64" rx=".3" ry="23.3" transform="matrix(.9566 -.2914 .2914 .9566 -71.3306 93.5643)"/><path d="m294.6 232.5c0 .1-1.8.4-4.5 1.4s-6.3 3-9.5 6.2c-3.1 3.2-5.1 6.8-6.1 9.5s-1.3 4.6-1.4 4.5c0 0 0-.5.1-1.3s.4-2 .9-3.4c.9-2.8 2.9-6.5 6.1-9.8 3.2-3.2 6.9-5.2 9.7-6.2 1.4-.5 2.6-.8 3.4-.9z" fill="#455a64"/><path d="m192.5 253.9s0 .2.1.7c0 .5 0 1.2.1 2 0 1.8.1 4.3.1 7.3.1 6.2.2 14.8.3 24.2s.1 18 .1 24.2v7.3 2 .7s0-.2-.1-.7c0-.5 0-1.2-.1-2 0-1.8-.1-4.3-.1-7.3-.1-6.2-.2-14.8-.3-24.2s-.1-17.9-.1-24.2c0-3.1 0-5.5 0-7.3 0-.8 0-1.5 0-2s0-.7 0-.7z" fill="#455a64"/><path d="m240.9 467.1s-.1-.3-.2-.7c-.1-.5-.3-1.3-.5-2.2-.4-1.9-1-4.6-1.7-8-1.4-6.8-3.1-16.2-4.8-26.6s-2.9-19.9-3.7-26.8c-.4-3.4-.7-6.2-.9-8.1-.1-.9-.2-1.7-.2-2.2s-.1-.8 0-.8c0 0 .1.3.1.8.1.6.2 1.3.3 2.2.3 2 .6 4.7 1.1 8.1.9 6.9 2.2 16.3 3.9 26.7s3.4 19.8 4.6 26.6c.6 3.4 1.1 6.1 1.5 8 .2.9.3 1.6.4 2.2.1.5.1.8.1.8z" fill="#263238"/><ellipse cx="272" cy="342.8" fill="#455a64" rx="25.3" ry=".3" transform="matrix(.9978 -.06576262 .06576262 .9978 -21.9574 18.6274)"/><path d="m622.5 441c-7.8-4.5-12-15.1-12.4-23.8-.3-8.7 3.3-17.7 10.4-22.7 7.5-5.2 18.1-5.1 25.8-.2s12.2 14.2 11.8 23.3c-.3 9.1-5.3 17.8-12.7 23.2" fill="#6060fc"/><path d="m635.1 441.8c-.1 0-.1-.7-.1-2 0-1.4-.1-3.2-.2-5.4-.1-4.6-.3-10.9-.6-17.8-.3-7-.7-13.2-1-17.8-.1-2.2-.2-4-.3-5.4-.1-1.3-.1-2 0-2s.2.7.3 2c.2 1.3.3 3.1.6 5.4.4 4.5.9 10.8 1.2 17.8s.4 13.3.4 17.8c0 2.3 0 4.1-.1 5.4s-.2 2-.2 2z" fill="#fff"/><ellipse cx="609.7" cy="415" fill="#263238" rx=".4" ry="2.8" transform="matrix(.08179051 -.9966 .9966 .08179051 146.2419 988.7772)"/><ellipse cx="610.7" cy="406.5" fill="#263238" rx=".4" ry="2.5" transform="matrix(.4055 -.9141 .9141 .4055 -8.496 799.889)"/><path d="m616.9 401.7c-.1.2-1.3-.4-2.6-1.4s-2.1-2.1-1.9-2.3c.2-.1 1.2.7 2.4 1.7s2.2 1.8 2.1 2z" fill="#263238"/><ellipse cx="620" cy="394.1" fill="#263238" rx=".4" ry="2.4" transform="matrix(.9147 -.4041 .4041 .9147 -106.3814 284.1817)"/><path d="m627.3 392.4c-.2.1-.8-.9-1.2-2.2s-.5-2.5-.3-2.5.6 1 1 2.3c.3 1.3.7 2.3.5 2.4z" fill="#263238"/><ellipse cx="637.2" cy="389.8" fill="#263238" rx="1.8" ry=".4" transform="matrix(.3328 -.943 .943 .3328 57.5569 860.9095)"/><ellipse cx="644.2" cy="392.7" fill="#263238" rx="1.9" ry=".4" transform="matrix(.734 -.6791 .6791 .734 -95.3257 541.9463)"/><ellipse cx="650.9" cy="396.9" fill="#263238" rx="1.9" ry=".4" transform="matrix(.8279 -.5609 .5609 .8279 -110.5963 433.3953)"/><ellipse cx="655.1" cy="403.4" fill="#263238" rx="2.5" ry=".4" transform="matrix(.9198 -.3923 .3923 .9198 -105.7604 289.3257)"/><ellipse cx="657" cy="410" fill="#263238" rx="2.2" ry=".4" transform="matrix(.9924 -.1229 .1229 .9924 -45.4134 83.8807)"/><ellipse cx="658.1" cy="417.6" fill="#263238" rx=".4" ry="2.4" transform="matrix(.3987 -.9171 .9171 .3987 12.7045 854.6119)"/><path d="m659.4 426.2c-.1.2-1.4-.1-2.8-1s-2.2-2-2.1-2.1 1.2.7 2.5 1.5 2.5 1.4 2.4 1.6z" fill="#263238"/><path d="m655.4 433.1c-.1.2-1.2-.5-2.2-1.5-1-1.1-1.5-2.2-1.4-2.3.2-.1 1 .7 1.9 1.8 1 1 1.9 1.9 1.7 2z" fill="#263238"/><ellipse cx="615.1" cy="435.3" fill="#263238" rx="3" ry=".4" transform="matrix(.887 -.4618 .4618 .887 -131.5135 333.2469)"/><ellipse cx="612.2" cy="428.6" fill="#263238" rx="2.3" ry=".4" transform="matrix(.9108 -.4129 .4129 .9108 -122.3679 291.0289)"/><ellipse cx="609.3" cy="422.5" fill="#263238" rx="2.5" ry=".4" transform="matrix(.9901 -.1405 .1405 .9901 -53.3047 89.7783)"/><path d="m620.1 419c.1.2-1 .7-2.4.8-1.4.2-2.6-.1-2.5-.3 0-.2 1.1-.3 2.5-.4 1.2-.1 2.3-.3 2.4-.1z" fill="#263238"/><path d="m627 412.2c.1.2-.8.6-1.9.7s-2.1-.1-2-.3c0-.2.9-.3 2-.4.9-.1 1.8-.2 1.9 0z" fill="#263238"/><ellipse cx="626.3" cy="406" fill="#263238" rx=".4" ry="2" transform="matrix(.3267 -.9451 .9451 .3267 37.9894 865.366)"/><path d="m630.8 401.1c-.1.1-.8-.3-1.2-1.1-.5-.8-.5-1.5-.3-1.6s.5.5.9 1.2c.4.8.7 1.4.6 1.5z" fill="#263238"/><path d="m627.8 423.9c0 .2-.7.6-1.8.8-.6.1-1.1.2-1.5.2l-.1-.4h.5c0 .1-.1.2-.3.4l-.1-.4c.3-.2.8-.3 1.4-.5.9-.3 1.8-.3 1.9-.1z" fill="#263238"/><ellipse cx="626.8" cy="434.6" fill="#263238" rx="2.6" ry=".4" transform="matrix(.9307 -.3658 .3658 .9307 -115.5173 259.3612)"/><ellipse cx="619.8" cy="429.9" fill="#263238" rx="1.7" ry=".4" transform="matrix(.9467 -.3221 .3221 .9467 -105.4346 222.5627)"/><path d="m622 409.5c0 .2-1.2.1-2.6-.4s-2.3-1.1-2.3-1.3c.1-.2 1.2.1 2.5.6 1.4.4 2.4.9 2.4 1.1z" fill="#263238"/><ellipse cx="639.2" cy="408.4" fill="#263238" rx="2" ry=".4" transform="matrix(.8348 -.5505 .5505 .8348 -119.2655 419.3511)"/><ellipse cx="640.2" cy="417.4" fill="#263238" rx="1.7" ry=".4" transform="matrix(.9791 -.2033 .2033 .9791 -71.4828 138.8487)"/><ellipse cx="641" cy="427.1" fill="#263238" rx=".4" ry="2.3" transform="matrix(.4202 -.9074 .9074 .4202 -15.97 829.2783)"/><ellipse cx="639.4" cy="437.4" fill="#263238" rx=".4" ry="1.8" transform="matrix(.7727 -.6347 .6347 .7727 -132.3213 505.2376)"/><path d="m640 400.1c.1.2-.3.7-1 1.1s-1.4.4-1.5.2.5-.5 1.1-.9c.7-.3 1.3-.6 1.4-.4z" fill="#263238"/><path d="m649.2 410c.1.2-.8.7-2 .8-1.2.2-2.1-.1-2.1-.3s.9-.3 2-.5c1.2-.1 2.1-.2 2.1 0z" fill="#263238"/><path d="m647.4 401.1c.1.2-.8.8-2 1.2s-2.2.4-2.3.2c0-.2.9-.5 2.1-.9s2.1-.7 2.2-.5z" fill="#263238"/><path d="m651.3 423.7c0 .2-1.5.3-3.2 0-1.8-.3-3.1-.9-3-1.1s1.4.1 3.1.4 3.1.5 3.1.7z" fill="#263238"/><path d="m647.8 436.6c-.1.2-1.2-.5-2.3-1.5-1.1-1.1-1.7-2.1-1.5-2.3.2-.1 1 .7 2.1 1.7 1 1 1.9 1.9 1.7 2.1z" fill="#263238"/><path d="m632.7 390.6c.1.2-2.9 1.4-6.4 5.1-3.5 3.6-7.1 10-8 17.7-.4 3.8-.1 7.6.5 10.9s1.3 6.3 2 8.7c.7 2.5 1.4 4.4 1.8 5.8s.7 2.1.6 2.1c0 0-.4-.7-.9-2s-1.2-3.3-2-5.7-1.6-5.4-2.2-8.8c-.6-3.3-1-7.1-.5-11.1.9-7.9 4.7-14.4 8.4-18 1.8-1.8 3.6-3.1 4.8-3.8.6-.4 1.1-.6 1.5-.8.2 0 .4-.1.4-.1z" fill="#fff"/><path d="m642.8 441.5c-.2-.1 1.7-2.9 3.3-7.9 1.7-5 3.1-12.3 2-20.3-.5-4-1.7-7.7-3.1-10.8-1.5-3.1-3.4-5.7-5.3-7.4-2-1.7-3.9-2.7-5.2-3.3-1.4-.6-2.2-.7-2.2-.8h.6c.4.1 1 .2 1.7.4 1.4.5 3.4 1.4 5.5 3.2 2 1.8 4 4.3 5.6 7.5 1.5 3.2 2.7 7 3.2 11 1.2 8.1-.4 15.6-2.2 20.6-.4 1.3-.9 2.4-1.3 3.3-.5.9-.9 1.8-1.2 2.4-1 1.4-1.4 2.1-1.4 2.1z" fill="#fff"/><path d="m614.3 439.7h40.5l.3 8.1h-40.8z" fill="#263238"/><path d="m617.7 443.8 2.4 24.7h29.6l2.4-24.4z" fill="#263238"/><ellipse cx="634.7" cy="447.9" fill="#455a64" rx="20.4" ry=".4"/><path d="m650.9 455.5s-.2.6-.9 1.5c-.6.9-1.6 2.3-3.1 3.7l-.2.2-.2-.2c-2-2-4.6-4.6-7.9-7h.4c-1.1 1-2.3 2-3.5 3.1-1.4 1.3-2.8 2.5-4.2 3.6l-.2.2-.2-.2c-2.5-2.1-4.8-4.1-6.8-5.7h.4c-1.4 1.7-2.6 3.1-3.5 4.3-.8 1-1.3 1.5-1.4 1.5 0 0 .4-.6 1.1-1.7.9-1.2 2-2.7 3.3-4.4l.2-.2.2.2c2 1.6 4.3 3.5 6.9 5.6h-.5c1.3-1.2 2.7-2.4 4.1-3.6 1.2-1.1 2.4-2.1 3.5-3.1l.2-.2.2.2c3.3 2.5 6 5 7.9 7.2h-.4c3.3-2.9 4.5-5.1 4.6-5z" fill="#455a64"/><path d="m230.2 75.5 3.2 16.7 2.5-4.7 5.6 8.3 2.7-1.9-5.5-8.3 5.1-.7z" fill="#263238"/></svg>