<svg enable-background="new 0 0 750 500" viewBox="0 0 750 500" xmlns="http://www.w3.org/2000/svg"><ellipse cx="377.4" cy="451.3" fill="#f5f5f5" rx="294.2" ry="17.2"/><path d="m505.4 451.3h11.1l15.2-83.8h-11.1z" fill="#263238"/><path d="m505.4 451.3h11.1l15.2-83.8h-11.1z" fill="#fff" opacity=".2"/><path d="m505.4 451.3h8.1l15.2-83.8h-8.1z" fill="#fff" opacity=".2"/><path d="m474 392.4h44.6c1.4 0 2.5-1.1 2.5-2.5 0-1.4-1.1-2.5-2.5-2.5h-44.6c-1.4 0-2.5 1.1-2.5 2.5 0 1.4 1.1 2.5 2.5 2.5z" fill="#263238"/><path d="m469 420.5h44.6c1.4 0 2.5-1.1 2.5-2.5 0-1.4-1.1-2.5-2.5-2.5h-44.6c-1.4 0-2.5 1.1-2.5 2.5.1 1.4 1.2 2.5 2.5 2.5z" fill="#263238"/><path d="m459.9 451.3h11.1l15.2-83.8h-11.2z" fill="#263238"/><path d="m459.9 451.3h11.1l15.2-83.8h-11.2z" fill="#fff" opacity=".2"/><path d="m459.9 451.3h8.1l15.1-83.8h-8.1z" fill="#fff" opacity=".2"/><path d="m563.6 451.3h-11.2l-15.2-83.8h11.2z" fill="#263238"/><path d="m563.6 451.3h-11.2l-15.2-83.8h11.2z" fill="#fff" opacity=".4"/><path d="m560.5 451.3h-8.1l-15.2-83.8h8.2z" fill="#fff" opacity=".2"/><path d="m544 392.4h-44.6c-1.4 0-2.5-1.1-2.5-2.5 0-1.4 1.1-2.5 2.5-2.5h44.6c1.4 0 2.5 1.1 2.5 2.5-.1 1.4-1.2 2.5-2.5 2.5z" fill="#263238"/><path d="m548.9 420.5h-44.6c-1.4 0-2.5-1.1-2.5-2.5 0-1.4 1.1-2.5 2.5-2.5h44.6c1.4 0 2.5 1.1 2.5 2.5 0 1.4-1.1 2.5-2.5 2.5z" fill="#263238"/><path d="m544 392.4h-44.6c-1.4 0-2.5-1.1-2.5-2.5 0-1.4 1.1-2.5 2.5-2.5h44.6c1.4 0 2.5 1.1 2.5 2.5-.1 1.4-1.2 2.5-2.5 2.5z" fill="#fff" opacity=".2"/><path d="m548.9 420.5h-44.6c-1.4 0-2.5-1.1-2.5-2.5 0-1.4 1.1-2.5 2.5-2.5h44.6c1.4 0 2.5 1.1 2.5 2.5 0 1.4-1.1 2.5-2.5 2.5z" fill="#fff" opacity=".2"/><path d="m518 451.3h-11.1l-15.2-83.8h11.2z" fill="#263238"/><path d="m518 451.3h-11.1l-15.2-83.8h11.2z" fill="#fff" opacity=".4"/><path d="m515 451.3h-8.1l-15.2-83.8h8.1z" fill="#fff" opacity=".2"/><path d="m553.4 371.5h-81.8c-.7 0-1.2-.5-1.2-1.2v-5.6c0-.7.5-1.2 1.2-1.2h81.8c.7 0 1.2.5 1.2 1.2v5.6c-.1.6-.6 1.2-1.2 1.2z" fill="#263238"/><path d="m503.4 371.5h-31.9c-.7 0-1.2-.5-1.2-1.2v-5.6c0-.7.5-1.2 1.2-1.2h31.9c.7 0 1.2.5 1.2 1.2v5.6c0 .6-.5 1.2-1.2 1.2z" fill="#fff" opacity=".2"/><path d="m191 383.9h101.9v66.3h-101.9z" fill="#407bff"/><path d="m191 383.9h101.9v66.3h-101.9z" fill="#fff" opacity=".6"/><path d="m194.8 396.3h94.4v50.5h-94.4z" fill="#6060fc"/><path d="m202.5 403.9h69.8v2.2h-69.8z" fill="#fff"/><path d="m202.5 410.6h33.5v2.2h-33.5z" fill="#fff"/><path d="m202.5 417.2h42.2v2.2h-42.2z" fill="#fff"/><path d="m202.5 423.9h14.9v2.2h-14.9z" fill="#fff"/><path d="m202.5 430.5h9.6v2.2h-9.6z" fill="#fff"/><path d="m418.8 451.3h-82.9l14-110.3h54.9z" fill="#407bff"/><path d="m418.8 451.3h-82.9l9.6-75.5 4.4-34.8h54.9l6.5 51.4z" fill="#fff" opacity=".6"/><path d="m411.3 392.4-65.8-16.6 4.4-34.8h54.9z" opacity=".1"/><path d="m572.9 69.1h-8.3-374.5-8.3c-5.5 0-10 4.5-10 10v264.7c0 5.5 4.5 10 10 10h8.3 374.5 8.3c5.5 0 10-4.5 10-10v-264.6c0-5.6-4.5-10.1-10-10.1z" fill="#407bff"/><path d="m572.9 69.1h-8.3-374.5-8.3c-5.5 0-10 4.5-10 10v264.7c0 5.5 4.5 10 10 10h8.3 374.5 8.3c5.5 0 10-4.5 10-10v-264.6c0-5.6-4.5-10.1-10-10.1z" fill="#fff" opacity=".7"/><path d="m185 78.9h384.7v255.3h-384.7z" fill="#6060fc"/><path d="m447.5 443h-140.3c-.6 0-1 .5-1 1v6.1c0 .6.5 1 1 1h140.4c.6 0 1-.5 1-1v-6.1c0-.5-.5-1-1.1-1z" fill="#407bff"/><path d="m447.5 443h-140.3c-.6 0-1 .5-1 1v6.1c0 .6.5 1 1 1h140.4c.6 0 1-.5 1-1v-6.1c0-.5-.5-1-1.1-1z" fill="#fff" opacity=".7"/><path d="m185 79.2h384.7v38h-384.7z" opacity=".2"/><path d="m185 117.7h164.9v216.5h-164.9z" fill="#fff" opacity=".4"/><g stroke="#fff"><path d="m510.5 174.2v2.5h-2.5" fill="none" stroke-miterlimit="10"/><path d="m502.9 176.7h-131.2" fill="none" stroke-dasharray="5.1433 5.1433" stroke-miterlimit="10"/><path d="m369.1 176.7h-2.5v-2.5" fill="none" stroke-miterlimit="10"/><path d="m366.6 169v-70.4" fill="none" stroke-dasharray="5.212 5.212" stroke-miterlimit="10"/><path d="m366.6 96v-2.5h2.5" fill="none" stroke-miterlimit="10"/><path d="m374.3 93.5h131.1" fill="none" stroke-dasharray="5.1433 5.1433" stroke-miterlimit="10"/><path d="m508 93.5h2.5v2.5" fill="none" stroke-miterlimit="10"/><path d="m510.5 101.2v70.4" fill="none" stroke-dasharray="5.212 5.212" stroke-miterlimit="10"/><path d="m508.1 91.1h4.8v4.8h-4.8z" fill="#407bff" stroke-miterlimit="10"/><path d="m508.1 174.3h4.8v4.8h-4.8z" fill="#407bff" stroke-miterlimit="10"/><path d="m364.2 91.1h4.8v4.8h-4.8z" fill="#407bff" stroke-miterlimit="10"/><path d="m364.2 174.3h4.8v4.8h-4.8z" fill="#407bff" stroke-miterlimit="10"/><path d="m436.2 91.1h4.8v4.8h-4.8z" fill="#407bff" stroke-miterlimit="10"/><path d="m436.2 174.3h4.8v4.8h-4.8z" fill="#407bff" stroke-miterlimit="10"/><path d="m508.1 132.7h4.8v4.8h-4.8z" fill="#407bff" stroke-miterlimit="10"/><path d="m364.2 132.7h4.8v4.8h-4.8z" fill="#407bff" stroke-miterlimit="10"/></g><path d="m498.4 136.6h-37.2c-1 0-1.9-.8-1.9-1.9v-11.4c0-1 .8-1.9 1.9-1.9h37.2c1 0 1.9.8 1.9 1.9v11.4c0 1.1-.8 1.9-1.9 1.9z" fill="#fff" opacity=".7"/><path d="m437.7 136.6h-37.2c-1 0-1.9-.8-1.9-1.9v-11.4c0-1 .8-1.9 1.9-1.9h37.2c1 0 1.9.8 1.9 1.9v11.4c0 1.1-.8 1.9-1.9 1.9z" fill="#fff" opacity=".7"/><path d="m359.6 321.1h-37.2c-1 0-1.9-.8-1.9-1.9v-11.4c0-1 .8-1.9 1.9-1.9h37.2c1 0 1.9.8 1.9 1.9v11.4c0 1.1-.9 1.9-1.9 1.9z" fill="#fff" opacity=".7"/><path d="m544.3 92.7h12.8" style="fill:none;stroke:#fff;stroke-width:1.5;stroke-linecap:round;stroke-linejoin:round;stroke-miterlimit:10"/><path d="m544.3 98.8h12.8" style="fill:none;stroke:#fff;stroke-width:1.5;stroke-linecap:round;stroke-linejoin:round;stroke-miterlimit:10"/><path d="m544.3 104.9h12.8" style="fill:none;stroke:#fff;stroke-width:1.5;stroke-linecap:round;stroke-linejoin:round;stroke-miterlimit:10"/><path d="m211.1 151.3h129v129h-129z" fill="#fff" opacity=".5"/><path d="m265.1 161.8v111.3" fill="none" stroke="#407bff" stroke-miterlimit="10"/><path d="m320.7 273.1c-30.7 0-55.7-24.9-55.7-55.7 0-30.7 24.9-55.7 55.7-55.7" fill="none" stroke="#407bff" stroke-miterlimit="10"/><path d="m318.3 159.4h4.8v4.8h-4.8z" fill="#fff" stroke="#407bff" stroke-miterlimit="10"/><path d="m318.3 270.7h4.8v4.8h-4.8z" fill="#fff" stroke="#407bff" stroke-miterlimit="10"/><path d="m262.7 215.1h4.8v4.8h-4.8z" fill="#fff" stroke="#407bff" stroke-miterlimit="10"/><circle cx="265.1" cy="161.8" fill="#fff" r="1.2" stroke="#407bff" stroke-miterlimit="10"/><circle cx="265.1" cy="273.1" fill="#fff" r="1.2" stroke="#407bff" stroke-miterlimit="10"/><path d="m478.9 307.8h-39.1c-6.2 0-11.3-5.1-11.3-11.3 0-6.2 5.1-11.3 11.3-11.3h39.1c6.2 0 11.3 5.1 11.3 11.3 0 6.2-5.1 11.3-11.3 11.3z" fill="#fff" opacity=".7"/><path d="m513.2 211.5h-120.7c-1.4 0-2.5-1.1-2.5-2.5 0-1.4 1.1-2.5 2.5-2.5h120.7c1.4 0 2.5 1.1 2.5 2.5 0 1.4-1.1 2.5-2.5 2.5z" fill="#fff" opacity=".7"/><path d="m513.2 229.5h-120.7c-1.4 0-2.5-1.1-2.5-2.5 0-1.4 1.1-2.5 2.5-2.5h120.7c1.4 0 2.5 1.1 2.5 2.5 0 1.4-1.1 2.5-2.5 2.5z" fill="#fff" opacity=".7"/><path d="m513.2 247.6h-75.2c-1.4 0-2.5-1.1-2.5-2.5 0-1.4 1.1-2.5 2.5-2.5h75.2c1.4 0 2.5 1.1 2.5 2.5 0 1.4-1.1 2.5-2.5 2.5z" fill="#fff" opacity=".7"/><path d="m197.1 89.7h8.5v8.5h-8.5z" opacity=".4"/><path d="m220.8 98.3h-5.6c-.8 0-1.4-.6-1.4-1.4v-5.6c0-.8.6-1.4 1.4-1.4h5.6c.8 0 1.4.6 1.4 1.4v5.6c0 .7-.6 1.4-1.4 1.4z" opacity=".4"/><path d="m236.3 98.3h-3.4c-1.4 0-2.6-1.2-2.6-2.6v-3.4c0-1.4 1.2-2.6 2.6-2.6h3.4c1.4 0 2.6 1.2 2.6 2.6v3.4c-.1 1.4-1.2 2.6-2.6 2.6z" opacity=".4"/><path d="m223.3 299.9v-3.3l-1.7-.2c-.2-1.1-.7-2.1-1.3-3.1l1.1-1.3-2.3-2.3-1.3 1.1c-.9-.6-2-1-3.1-1.3l-.2-1.7h-3.3l-.2 1.7c-1.1.2-2.1.7-3.1 1.3l-1.3-1.1-2.3 2.3 1.1 1.3c-.6.9-1 2-1.3 3.1l-1.7.2v3.3l1.7.2c.2 1.1.7 2.1 1.3 3.1l-1.1 1.3 2.3 2.3 1.3-1.1c.9.6 2 1 3.1 1.3l.2 1.7h3.3l.2-1.7c1.1-.2 2.1-.7 3.1-1.3l1.3 1.1 2.3-2.3-1.1-1.3c.6-.9 1-2 1.3-3.1zm-10.5 2.9c-2.5 0-4.5-2-4.5-4.5s2-4.5 4.5-4.5 4.5 2 4.5 4.5-2 4.5-4.5 4.5z" fill="#fff" opacity=".9"/><path d="m236.8 309.3v-2.6l-1.3-.1c-.2-.9-.5-1.7-1-2.4l.9-1-1.8-1.8-1 .9c-.7-.5-1.5-.8-2.4-1l-.1-1.3h-2.6l-.1 1.3c-.9.2-1.7.5-2.4 1l-1-.9-1.8 1.8.9 1c-.5.7-.8 1.5-1 2.4l-1.3.1v2.6l1.3.1c.2.9.5 1.7 1 2.4l-.9 1 1.8 1.8 1-.9c.7.5 1.5.8 2.4 1l.1 1.3h2.6l.1-1.3c.9-.2 1.7-.5 2.4-1l1 .9 1.8-1.8-.9-1c.5-.7.8-1.5 1-2.4zm-8.2 2.2c-1.9 0-3.5-1.6-3.5-3.5s1.6-3.5 3.5-3.5 3.5 1.6 3.5 3.5c0 2-1.6 3.5-3.5 3.5z" fill="#fff" opacity=".6"/><path d="m223.3 316.7v-2.2l-1.1-.1c-.2-.7-.4-1.4-.8-2l.7-.9-1.5-1.5-.9.7c-.6-.4-1.3-.7-2-.8l-.1-1.1h-2.2l-.1 1.1c-.7.2-1.4.4-2 .8l-.9-.7-1.5 1.5.7.9c-.4.6-.7 1.3-.8 2l-1.1.1v2.2l1.1.1c.2.7.4 1.4.8 2l-.7.9 1.5 1.5.9-.7c.6.4 1.3.7 2 .8l.1 1.1h2.2l.1-1.1c.7-.2 1.4-.4 2-.8l.9.7 1.5-1.5-.7-.9c.4-.6.7-1.3.8-2zm-6.9 1.9c-1.6 0-3-1.3-3-3 0-1.6 1.3-3 3-3 1.6 0 3 1.3 3 3s-1.4 3-3 3z" fill="#fff" opacity=".4"/><path d="m509.6 92.7 6.5 17.2 10.7-10.8z" fill="#407bff"/><path d="m519.7 100.7h3.4v7.5h-3.4z" fill="#407bff" transform="matrix(.7071 -.7071 .7071 .7071 78.8352 399.3224)"/><path d="m526.8 99.1-17.2-6.4 6.5 17.2 4.1-4.2 2.7 2.7 2.4-2.4-2.7-2.7z" fill="#fff" opacity=".4"/><path d="m246.1 154.2 16.2 6.1-8.5-8.5c-.6.4-1.4.3-2-.3-.7-.7-.7-1.7 0-2.4s1.7-.7 2.4 0c.5.5.6 1.3.3 2l8.5 8.5-6.1-16.2-5.4 1.2-.2-1.9-1-1-5.9 5.9 1 1 1.9.2z" fill="#263238"/><path d="m246.1 154.2 16.2 6.1-8.5-8.5c-.6.4-1.4.3-2-.3-.7-.7-.7-1.7 0-2.4s1.7-.7 2.4 0c.5.5.6 1.3.3 2l8.5 8.5-6.1-16.2-5.4 1.2-.2-1.9-1-1-5.9 5.9 1 1 1.9.2z" fill="#fff" opacity=".2"/><g fill="#fff" opacity=".1"><path d="m241.3 78.9-57.1 213.1v-213.1z"/><path d="m305.6 78.9-68.3 255.3h-47.1l68.3-255.3z"/><path d="m374 78.9-68.3 255.3h-21.3l68.3-255.3z"/><path d="m437 78.9-68.3 255.3h-7.6l68.3-255.3z"/></g><path d="m668.5 135.3c5.4 6.2 32.8 59 27.5 71.3s-49.2-1.9-49.2-1.9l2.6-17.4s17.1.6 18.7-1-23.1-26.3-23.1-26.3z" fill="#263238"/><path d="m696 206.6c-.6 1.4-1.7 2.5-3.2 3.2-.3.1-.6.3-.9.4h-.1c-.3.1-.5.2-.8.3-1.1.4-2.4.6-3.8.8-.4 0-.7.1-1.1.1-.5 0-1.1.1-1.7.1-.5 0-1 0-1.4 0-14.7 0-36.1-6.9-36.1-6.9l2.6-17.4s17.1.6 18.7-1c.4-.4-.8-2.2-2.8-4.6-4.8-5.9-14.5-15.8-18.5-19.8-1.1-1.1-1.8-1.8-1.8-1.8l23.5-24.7c5.3 6.2 32.7 59 27.4 71.3z" fill="#fff" opacity=".2"/><path d="m692.8 209.8s0 .1 0 0c-.3.2-.6.3-.9.4h-.1c-.3.1-.5.2-.8.3-1.1.4-2.4.6-3.8.8-.4 0-.7.1-1.1.1-.5 0-1.1.1-1.7.1-.5 0-1 0-1.4 0-14.7 0-36.1-6.9-36.1-6.9l2.6-17.4s19.2 1.6 20.8 0c0 0 0 0 0-.1.3-.6-1.8-2.8-5-5.5-4.8-5.9-14.5-15.8-18.5-19.8l11.2-11.8 8.5-.9c-.1-.1 18.6 30.1 26.3 60.7z" opacity=".2"/><path d="m613.2 133.5c-3 2.2-4.5 5.3-3.3 7l80.1 110.5c1.2 1.6 4.6 1.2 7.7-1 3-2.2 4.5-5.3 3.3-7l-80.2-110.5c-1.2-1.6-4.6-1.2-7.6 1z" fill="#263238"/><path d="m620.8 132.5 80.2 110.6c1.2 1.6-.3 4.8-3.3 7s-6.5 2.7-7.7 1l-80.2-110.5c-.7-.9-.5-2.3.3-3.7.4-.7.9-1.3 1.5-2 .4-.5 1-.9 1.5-1.3 3.1-2.3 6.5-2.7 7.7-1.1z" fill="#fff" opacity=".7"/><path d="m701 243.1c1.2 1.6-.3 4.8-3.3 7s-6.5 2.7-7.7 1c-.7-.9 1-2.3 2-4.3l-81.8-109.9c.4-.7.9-1.3 1.5-2l80.2 110.5c.5-.5.9-.9 1.5-1.3 3-2.2 6.4-2.7 7.6-1z" opacity=".3"/><path d="m603.2 130.5c-2.6 2.7-3.4 6.1-2 7.5l99.7 93.3c1.5 1.4 4.8.3 7.3-2.4 2.6-2.7 3.4-6.1 2-7.5l-99.6-93.4c-1.5-1.4-4.8-.3-7.4 2.5z" fill="#407bff"/><path d="m610.6 128 99.7 93.3c1.5 1.4.6 4.7-2 7.5-2.6 2.7-5.9 3.8-7.3 2.4l-99.7-93.3c-.8-.8-.9-2.1-.4-3.7.2-.7.6-1.5 1.1-2.2.3-.5.8-1.1 1.2-1.6 2.6-2.7 5.9-3.8 7.4-2.4z" fill="#fff" opacity=".7"/><path d="m710.2 221.3c1.5 1.4.6 4.7-2 7.5-2.6 2.7-5.9 3.8-7.3 2.4-.8-.8.5-2.4 1.1-4.6l-101.2-92.4c.2-.7.6-1.5 1.1-2.2l99.7 93.3c.4-.5.8-1.1 1.2-1.6 2.7-2.6 6-3.7 7.4-2.4z" opacity=".3"/><path d="m627.2 428.3-7.6.1c-7.7-36.3-13.2-81.2-16.6-115-.5-5.3-1-10.3-1.4-15-.2-2.2-.4-4.4-.6-6.4-.9-10.2-1.5-18.3-1.9-23.2-.3-3.6-.4-5.6-.4-5.6h27.5l-.3 7-.8 23.1-.1 2.6-.6 15.2-1 26c9.4 36.4 3.8 91.2 3.8 91.2z" fill="#ebb376"/><path d="m688.8 426.4-7.5 1.4c-15-37.4-29-85.4-38.2-118.8-1.4-5.2-2.7-10-3.9-14.4-.1-.2-.1-.4-.2-.7-2.3-8.7-4.1-15.7-5.2-20.1-.8-3.5-1.3-5.4-1.3-5.4l27.1-4.7 1.5 11.4 2.3 16.7.4 3.3 1.5 11.4 4.1 30.6c15.6 34.3 19.4 89.3 19.4 89.3z" fill="#ebb376"/><path d="m663.4 291.8-24.2 2.7c-.1-.2-.1-.4-.2-.7-2.3-8.7-4.1-15.7-5.2-20.1l27.3 1.4z" opacity=".2"/><path d="m625.9 270-.8 23.1-.1 2.6-23.4 2.6c-.2-2.2-.4-4.4-.6-6.4-.9-10.2-1.5-18.3-1.9-23.2z" opacity=".2"/><path d="m604.7 453.5c1.4-1.1 3-2 4.8-2.6s5.2-5.1 7.7-20.6l6.8-1.8c2.4-.6 4.8.4 6.2 2.4.2.3.3.6.4.9.3 1.7.6 3.3.7 5 .7 5.2.1 17 .1 17h-1.2l-.5-10.7c-.2-3.6-2.9.6-3.7 4.5s-2.5 8-10.4 8.2c-9.4.3-13.2 0-10.9-2.3z" fill="#263238"/><path d="m630.3 431.1c.4-3.6.6-9.9.6-9.9l-15 1.7s1.8 7.1.3 12.5c7.6-2 14.1-4.3 14.1-4.3z" fill="#263238"/><path d="m666 453.5c1.4-1.1 3-2 4.8-2.6s5.2-5.1 7.7-20.6l6.8-1.8c2.4-.6 4.8.4 6.2 2.4.2.3.3.6.4.9.3 1.7.6 3.3.7 5 .7 5.2.1 17 .1 17h-1.2l-.5-10.7c-.2-3.6-2.9.6-3.7 4.5s-2.5 8-10.4 8.2c-9.4.3-13.3 0-10.9-2.3z" fill="#263238"/><path d="m691.6 431.1c.4-3.6.6-9.9.6-9.9l-15 1.7s1.8 7.1.3 12.5c7.5-2 14.1-4.3 14.1-4.3z" fill="#263238"/><path d="m666 284.3-28.6 3.7-1.1.1-5.9-21.6-1.5 23.1-30.7-1.6c-13.7-80.2 9.7-99.2 9.7-99.2l41.6 8.4c18.8 32 14.4 69.3 14.4 69.3z" fill="#6060fc"/><ellipse cx="623.5" cy="89" rx="3.1" ry="5.7" style="fill:none;stroke:#263238;stroke-width:.5;stroke-linecap:round;stroke-linejoin:round;stroke-miterlimit:10"/><path d="m647.2 108.1c-.1.1-.2.2-.4.3-1.7 1.2-3.6 2.3-5.8 2.8-6.1 1.4-10.3.6-13.1-2.2-3.8-4.2-4.8-11.6-4.3-20.5.2-4.1.8-7.6 1.9-10.4 0 0 0-.1 0-.2.1-.1.1-.3.2-.4 1.7-3.9 4.5-6.4 8.9-7.4 1.5-.4 3.3-.6 5.3-.6 17.5-.2 20.6 28.6 7.3 38.6z" fill="#ebb376"/><path d="m646.8 108.3c-1.7 1.2-3.6 2.1-5.8 2.6-6.1 1.4-10.3.4-13.1-2.4 3 .7 7.1.9 11-.9 2.5-1.2 5.3-.6 7.9.7z" opacity=".2"/><path d="m648.6 124c1.1 5-5.3 7-5.3 7-10.5-4.5-12.4-10.1-12.4-10.1 8.7-4.6 6.2-17.5 6.2-17.5l1.8.9 12.5 2.4s-3.5 6.7-3.9 8.2c-2.5 8 1.1 9.1 1.1 9.1z" fill="#ebb376"/><path d="m625.6 78s-1 12.2 10.6 17.4c0 0 5 12.7 12.3 12.8 10 .2 18.7-13.9 15.3-28.4-4.6-18.6-32.9-20.2-38.2-1.8z" fill="#263238"/><path d="m630.3 91.9c0-1.9 1.5-5.1 4.5-4.7 3.1.4 4.8 8-2.8 9.7-1 .2-1.7-1-1.7-5z" fill="#ebb376"/><path d="m646.8 65s-11.6-2.9-18.1 1.7c-7.5 5.5-10.4 11.1-1.5 19.9 0 0 19.5-6.3 26-5s11.1 3.2 11.1 3.2c1.5-12.8-11-22.4-17.5-19.8z" fill="#263238"/><path d="m630.3 89s3.1 14.1-1.7 26c0 0 27.6 9.6 37.2 4.4s.8-22.7.4-32.7c-.4-10.1-4.8-25-19.4-21.6-14.6 3.2-16.5 23.9-16.5 23.9z" fill="#263238"/><path d="m620.4 88.1h11.6" style="fill:none;stroke:#263238;stroke-width:.5;stroke-linecap:round;stroke-linejoin:round;stroke-miterlimit:10"/><path d="m637.4 288-1.1.1-5.9-21.6s12.6-21.6 8.7-32.8c.5.9 14.1 21-1.7 54.3z" opacity=".2"/><path d="m613.8 122.9s13.9-5 34.8 1.1c20.9 6 21.7 15 21.7 15s-13.3 30-15.4 64.1l-54.5-2c0-.1-6.5-48.1 13.4-78.2z" fill="#263238"/><path d="m670.3 139s-13.3 30.1-15.4 64.1l-54.5-2s-.9-6.7-1-16.6c-.1-6.9.2-15.5 1.5-24.4 1.8-12.6 5.6-26 12.9-37.1 0 0 13.9-4.9 34.8 1.1s21.7 14.9 21.7 14.9z" fill="#fff" opacity=".2"/><path d="m613 162s-2.3 13.8-13.6 22.4c-.1-6.9.2-15.5 1.5-24.4z" opacity=".2"/><path d="m552.8 122-6.9-10.2s-1.1-4.4-2.4-5.4-14.5-6.6-16.1-6.6-1.6 10.3 0 12 9.9 5.5 12.1 5.9 1.1 0 1.1 0l6.1 12.1z" fill="#ebb376"/><path d="m613.8 122.9s-19.1 7.5-42.5 21.9l-22.2-30.3s-6 1.9-8.2 12.3c0 0 11.4 43.4 26.2 47.7s45.9-12.5 45.9-12.5 9-22.6.8-39.1z" fill="#263238"/><path d="m613.8 122.9s-19.1 7.5-42.5 21.9l-22.2-30.3s-6 1.9-8.2 12.3c0 0 11.4 43.4 26.2 47.7s45.9-12.5 45.9-12.5 9-22.6.8-39.1z" fill="#fff" opacity=".2"/><path d="m627.8 121s4.8 34.6 20.2 36c15.3 1.4 22.2-24.2 19.6-27.3-2.6-3-22.4-8.9-39.8-8.7z" fill="#263238"/><path d="m627.8 121s4.8 34.6 20.2 36c15.3 1.4 22.2-24.2 19.6-27.3-2.6-3-22.4-8.9-39.8-8.7z" fill="#fff" opacity=".3"/><path d="m82 439.8h11.3l.9-26h-11.2z" fill="#b97964"/><path d="m94.8 438.5h-13.6c-.5 0-.9.3-1 .8l-2.2 10c-.2.9.4 1.8 1.3 2h.4c4.4-.1 7.6-.3 13.2-.3 3.4 0 13.7.4 18.4.4s5.3-4.7 3.4-5.1c-8.7-1.9-15.2-4.5-18-7-.5-.6-1.2-.8-1.9-.8z" fill="#263238"/><path d="m95.6 440c-.1 0-.2-.1-.2-.2s0-.2.1-.3c.4-.3 4-2.5 5.3-1.8.3.1.5.4.5.7.1.5-.1 1.1-.6 1.4-.6.4-1.4.6-2.2.6-.9 0-1.9-.1-2.9-.4zm.8-.3c1.3.4 2.7.4 4-.2.3-.2.4-.6.4-1 0-.2-.1-.3-.2-.3-.1-.1-.2-.1-.3-.1-1.4.3-2.7.8-3.9 1.6z" fill="#407bff"/><path d="m95.5 440.1c-.1-.1-.1-.1-.1-.2 0-.2.3-3.4 1.6-4.4.3-.3.7-.4 1.1-.3.4 0 .8.3.9.7.2 1.2-2 3.7-3.2 4.3h-.1c-.1-.1-.1-.1-.2-.1zm1.8-4.4c-.8 1-1.3 2.2-1.3 3.5 1.2-.9 2.6-2.7 2.4-3.5 0-.1 0-.3-.4-.3h-.1c-.2.1-.4.2-.6.3z" fill="#407bff"/><path d="m83 413.8h11.2l-.5 13.4h-11.2z" opacity=".2"/><path d="m139.9 440.6 11.6 1.3 2.2-25.1-11.6-1.2z" fill="#b97964"/><path d="m152.7 438.1h-13.6c-.5 0-.9.3-1 .8l-2.2 10c-.2.9.4 1.8 1.3 2h.4c4.4-.1 7.6-.3 13.2-.3 3.4 0 13.7.4 18.4.4s5.3-4.7 3.4-5.1c-8.7-1.9-15.2-4.5-18-7-.5-.5-1.2-.8-1.9-.8z" fill="#263238"/><path d="m153.5 439.7c-.1 0-.2-.1-.2-.2s0-.2.1-.3c.4-.3 4-2.5 5.3-1.8.3.1.5.4.5.7.1.5-.1 1.1-.6 1.4-.6.4-1.4.6-2.2.6-1 0-1.9-.2-2.9-.4zm.8-.4c1.3.4 2.7.4 4-.2.3-.2.4-.6.4-1 0-.2-.1-.3-.2-.3-.1-.1-.2-.1-.3-.1-1.5.3-2.8.9-3.9 1.6z" fill="#407bff"/><path d="m153.4 439.7c-.1-.1-.1-.1-.1-.2 0-.2.3-3.4 1.6-4.4.3-.3.7-.4 1.1-.3.4 0 .8.3.9.7.2 1.2-2 3.7-3.2 4.3h-.1c-.1-.1-.1-.1-.2-.1zm1.8-4.3c-.8 1-1.3 2.2-1.3 3.5 1.2-.9 2.6-2.7 2.4-3.5 0-.1 0-.3-.4-.3h-.1c-.2 0-.4.1-.6.3z" fill="#407bff"/><path d="m142.1 415.6 11.6 1.2-1.2 12.9-11.6-1.2z" opacity=".2"/><path d="m87.6 185.5h59.6c5.7 31 23.4 140.5 10.7 238.2l-20.2-2.5s1.9-129.6-16-177.5c-2.1 25.6-4.5 52.9-6.6 67.4-5.2 35.7-16.3 113.8-16.3 113.8h-20.5s4.2-74.7 6.1-109.9c2.2-38.1 3.1-121.7 3.2-129.5z" fill="#263238"/><path d="m160.2 428.3-25-3.7.8-6.9 26 3.4z" fill="#407bff"/><path d="m101.4 425h-24.3v-7.2l25.2-.5z" fill="#407bff"/><path d="m121.8 243.6c2.6 7.1 4.8 15.9 6.7 25.8 1.7-22.8-5-47-5-47z" opacity=".2"/><path d="m85.9 195.8-1.4 7.2s41.7 5.4 67.7 5.3l-.9-5z" fill="#407bff"/><path d="m170.6 133.4s14.4 45.5 24.3 48.5 35-34.6 35-34.6 22.5-.2 23.5-1.8c1-1.5-5.8-17.4-7.5-17.4-1.6 0-21.2 7.4-22 8.6s-23.2 22.7-24.3 22.1-9.6-27.7-9.6-27.7z" fill="#b97964"/><path d="m232.8 145c.2 0 .4-.1.5-.1-.1-.1-.2-.1-.3-.2 0 .1-.1.2-.2.3z" fill="#b97964"/><path d="m162.4 128.2 1.8 3.2 8.2 15.2 1.7 3.1 23-8s-9.6-35.8-12.9-39.4z" fill="#407bff"/><path d="m162.4 128.2 1.8 3.2 8.2 15.2 1.7 3.1 23-8s-9.6-35.8-12.9-39.4z" fill="#fff" opacity=".4"/><path d="m164.2 131.4 8.2 15.2c5.1-10 3.6-23.6 3.6-23.6z" opacity=".2"/><path d="m184.2 102.3s-12.1-15.8-34.7-16.8c-22.6-1.1-29.7 1.2-37.9 8.6-12.1 10.8-27 103.5-27 103.5s31.6 9.8 67.7 7.4c0 0 .3-25.8 8.4-43.1 15.8-33.9 23.5-59.6 23.5-59.6z" fill="#407bff"/><path d="m84.5 197.6s31.6 9.8 67.7 7.4c0 0 0-3.2.4-8.1.2-2.3.5-5 .8-7.9.4-3 .9-6.2 1.6-9.5.4-1.8.8-3.6 1.2-5.3 1.1-4.3 2.5-8.5 4.3-12.3 1-2.1 2-4.2 2.9-6.3 1.6-3.6 3.2-7.1 4.6-10.5 3-7.1 5.6-13.5 7.8-19.1 1.6-4 2.9-7.7 4-10.8 1.2-3.5 2.2-6.3 2.9-8.4.9-2.8 1.4-4.4 1.4-4.4s-.8-1.1-2.4-2.7c-4.5-4.5-15.2-13.1-31.5-14.1-.2 0-.5 0-.7-.1-17.2-.8-25.4.3-32 4.1-2.1 1.2-4 2.7-5.9 4.4-1.3 1.2-2.7 3.4-4.1 6.5-2.3 5-4.6 12-6.9 20.1-.3 1.2-.7 2.4-1 3.7-1.5 5.6-2.9 11.6-4.3 17.7-.4 1.7-.8 3.5-1.2 5.2-.6 2.6-1.1 5.3-1.7 7.9-1.4 6.5-2.6 12.9-3.7 18.6-1.5 8.2-2.7 15.1-3.5 19.3-.4 2.9-.7 4.6-.7 4.6zm66.3-111.3c1.6.1 3.1.2 4.5.4 6.1.8 15.4 5.7 15.2 8s-3.8 8.2-12.8 6.8c-3.1-.5-6.2-1.9-8.8-3.7-5-3.3-8.7-7.8-9-9.2-.5-1.8 5.4-2.4 10.9-2.3z" fill="#6060fc" opacity=".4"/><path d="m131.4 117.2s-12 28.9-14.4 53l32.3 4.1s14.5-39.1 17.5-51.3c0 0-25.8-2.6-35.4-5.8z" fill="#407bff"/><path d="m160.5 124.1 4.5.5-3.3 2.5z" fill="#fff" opacity=".4"/><path d="m142.9 88.6c2.4 7 11.5 10.2 16.3 10.6 6.7.6 8.6-4.7 8.6-4.7s-5.4-2.7-4.9-5.8c.3-1.8 1.2-3.5 2.2-5.2.6-.9 1.2-1.7 1.9-2.6l-8.7-18.7c-1.9 8.2-7.9 23.8-15.4 26.4z" fill="#b97964"/><path d="m158 70.9c-4.2 9.1 1.7 15.4 5 17.8.3-1.8 1.2-3.5 2.2-5.2z" opacity=".2"/><path d="m187.2 46.7s2.8 15.4-5.3 21.6c-8 6.2-8.9-22.6-8.9-22.6z" fill="#b97964"/><path d="m187.2 46.7s2.8 15.4-5.3 21.6c-8 6.2-8.9-22.6-8.9-22.6z" opacity=".4"/><path d="m158.5 81.2c4.1 5.6 10.7 6.9 16.3 5 3.6-1.2 6.8-3.9 8.7-7.5.3-.5.5-1 .7-1.5 3.8-9.6 4.6-32.9-5.6-32.1-8.4.7-16.6-1.9-20.8 5.4-1.2 2.1-1.9 4.4-2.1 6.8-1 11-2 17.5 2.8 23.9z" fill="#b97964"/><path d="m171.9 62.7c-.2.9.2 1.7.8 1.8s1.2-.6 1.3-1.5-.3-1.7-.8-1.8-1.1.6-1.3 1.5z" fill="#263238"/><path d="m182.1 64.1c-.2.9.3 1.7.8 1.8.6.1 1.2-.6 1.3-1.5s-.3-1.7-.8-1.8c-.6 0-1.2.7-1.3 1.5z" fill="#263238"/><path d="m178.8 64.1c.7 2.9 1.8 5.7 3.2 8.3-1.4.7-3 .8-4.4.2z" fill="#a24e3f"/><path d="m169.3 59c.2.1.4 0 .5-.1.9-1 2.3-1.5 3.6-1.3.3.1.6-.1.6-.4.1-.3-.1-.6-.4-.6-1.7-.3-3.4.3-4.6 1.6-.2.2-.2.5 0 .7.1 0 .2 0 .3.1z" fill="#263238"/><path d="m186.9 61.3c.1.1.2.1.3.1.3-.1.4-.4.4-.7-.5-1.6-1.7-3-3.4-3.5-.3-.1-.6.1-.6.4-.1.3.1.6.4.6 1.3.5 2.2 1.5 2.6 2.8.1.1.2.2.3.3z" fill="#263238"/><path d="m170.5 73s1.9 4 5.7 3.9" style="fill:none;stroke:#263238;stroke-width:.5;stroke-linecap:round;stroke-linejoin:round;stroke-miterlimit:10"/><path d="m165.7 44.6.1 4.9c-1.7.7-2.8 2.4-2.3 4.4 1.2 4.3-1.7 10.4-5.1 12.7 0 0 .1-1.8-1.5-1.5-1.5.3-2 9.6.5 14.3 0 0-5.4-4.9-7-14.9-1.5-9.2-1.2-15.1.1-19.5z" fill="#b97964"/><path d="m165.7 44.6.1 4.9c-1.7.7-2.8 2.4-2.3 4.4 1.2 4.3-1.7 10.4-5.1 12.7 0 0 .1-1.8-1.5-1.5-1.5.3-2 9.6.5 14.3 0 0-5.4-4.9-7-14.9-1.5-9.2-1.2-15.1.1-19.5z" opacity=".4"/><path d="m149.6 50.6s6.3 1 16.2-1c15.3-3 21.8 2.6 21.8 2.6s3.6-3.1 3.2-7.5-6.6-5.2-6.6-5.2-1.8-5-5.9-6.5-8.1 2.3-8.1 2.3-5.1-4.9-10.9-3.5c-7.2 1.7-7.1 8.6-7.1 8.6s-6.9.7-6.8 4.3 4.2 5.9 4.2 5.9z" fill="#263238"/><ellipse cx="173.1" cy="63.4" rx="5" ry="5.7" style="fill:none;stroke:#263238;stroke-width:.5;stroke-linecap:round;stroke-linejoin:round;stroke-miterlimit:10"/><ellipse cx="185.6" cy="64.3" rx="5" ry="5.7" style="fill:none;stroke:#263238;stroke-width:.5;stroke-linecap:round;stroke-linejoin:round;stroke-miterlimit:10"/><path d="m178.1 64.1s1.6-1 2.6.2" style="fill:none;stroke:#263238;stroke-width:.5;stroke-linecap:round;stroke-linejoin:round;stroke-miterlimit:10"/><path d="m168.2 63.4-8.7-1.2c-1.1-.2-2.3.2-3.2.9l-.4.3" style="fill:none;stroke:#263238;stroke-width:.5;stroke-linecap:round;stroke-linejoin:round;stroke-miterlimit:10"/><path d="m149.6 65.6c.9 2.7 2.8 4.9 5.3 6.2 3.3 1.7 5.7-1.1 5.4-4.6-.3-3.1-2.4-7.8-6-8-3.8-.3-5.8 3.1-4.7 6.4z" fill="#b97964"/><path d="m94.1 147.1c14.3-5.9 25.6-30.5 25.6-30.5l-8.1-4.9-11 8.9c-.3 1.2-.7 2.4-1 3.7-1.5 5.6-2.9 11.6-4.3 17.7-.4 1.7-.8 3.4-1.2 5.1z" opacity=".2"/><path d="m173 149.8 24.7-9.1.7 2.1-24.7 8.8z" fill="#407bff"/><path d="m33.4 206.2h72.5v44.7h-72.5z" fill="#407bff" transform="matrix(.9877 .1567 -.1567 .9877 36.6721 -8.0918)"/><path d="m62.7 217.7-14.5 7.5 11.5 11.7" style="fill:none;stroke:#fff;stroke-width:2;stroke-linecap:round;stroke-linejoin:round;stroke-miterlimit:10"/><path d="m76.6 239.5 14.6-7.5-11.5-11.7" style="fill:none;stroke:#fff;stroke-width:2;stroke-linecap:round;stroke-linejoin:round;stroke-miterlimit:10"/><path d="m64.7 237.7 9.9-18.2" style="fill:none;stroke:#fff;stroke-width:2;stroke-linecap:round;stroke-linejoin:round;stroke-miterlimit:10"/><path d="m103 98s-27 27.1-30.7 32.4-10.7 63.6-10.7 63.6-1.5.5-1.6 1.8-.2 17.7 0 18.4c.2.8 12.7 8.4 14.5 6.6s4.4-20.4 4.4-20.4l-6.5-6.4s7.6-43 12.4-49.9c4.8-7 24.4-21.9 24.4-21.9z" fill="#b97964"/><path d="m123.8 87.1c3.9 8.3.9 25.9-6.3 32.1-11 9.4-24.3 17.4-24.3 17.4l-13.2-17.4s14.1-13.7 22.6-21.7c10.3-9.6 21.2-10.4 21.2-10.4z" fill="#407bff"/><path d="m123.8 87.1c3.9 8.3.9 25.9-6.3 32.1-11 9.4-24.3 17.4-24.3 17.4l-13.2-17.4s14.1-13.7 22.6-21.7c10.3-9.6 21.2-10.4 21.2-10.4z" fill="#fff" opacity=".4"/><path d="m80 118.1-1.7 2.2 13.9 18.1 1.9-1.4z" fill="#407bff"/></svg>